<?xml version="1.0" encoding="UTF-8" standalone="no"?>
<svg
   xmlns:dc="http://purl.org/dc/elements/1.1/"
   xmlns:cc="http://creativecommons.org/ns#"
   xmlns:rdf="http://www.w3.org/1999/02/22-rdf-syntax-ns#"
   xmlns:svg="http://www.w3.org/2000/svg"
   xmlns="http://www.w3.org/2000/svg"
   viewBox="0 0 602 89.066666"
   height="89.066666"
   width="602"
   xml:space="preserve"
   id="svg2"
   version="1.1"><metadata
     id="metadata8"><rdf:RDF><cc:Work
         rdf:about=""><dc:format>image/svg+xml</dc:format><dc:type
           rdf:resource="http://purl.org/dc/dcmitype/StillImage" /></cc:Work></rdf:RDF></metadata><defs
     id="defs6" /><g
     transform="matrix(1.3333333,0,0,-1.3333333,0,89.066667)"
     id="g10"><g
       transform="scale(0.1)"
       id="g12"><path
         id="path14"
         style="fill:#231f20;fill-opacity:1;fill-rule:nonzero;stroke:none"
         d="m 847.125,394.055 c 0,-39.18 0,-60.309 6.43,-65.821 5.199,-4.578 13.16,-6.726 37.043,-6.726 16.222,0 28.168,0.308 35.812,8.566 3.68,3.981 7.352,12.563 7.961,18.371 0.309,2.758 0.918,4.594 3.363,4.594 2.149,0 2.457,-1.527 2.457,-5.203 0,-3.375 -2.148,-26.328 -4.589,-35.207 -1.84,-6.746 -3.372,-8.274 -19.293,-8.274 -44.086,0 -64.282,1.86 -89.086,1.86 -7.035,0 -26.328,-0.934 -38.571,-0.934 -3.984,0 -6.117,0.934 -6.117,3.078 0,1.528 1.215,2.434 4.887,2.434 4.594,0 8.266,0.621 11.023,1.238 6.125,1.199 7.66,7.949 8.879,16.824 1.539,12.864 1.539,37.047 1.539,65.2 v 53.886 c 0,46.536 0,55.098 -0.621,64.903 -0.609,10.406 -3.054,15.308 -13.16,17.441 -2.445,0.621 -6.121,0.926 -10.105,0.926 -3.368,0 -5.204,0.617 -5.204,2.754 0,2.148 2.141,2.754 6.731,2.754 14.391,0 33.684,-0.914 41.949,-0.914 7.348,0 29.692,0.914 41.637,0.914 4.281,0 6.418,-0.606 6.418,-2.754 0,-2.137 -1.836,-2.754 -5.5,-2.754 -3.375,0 -8.27,-0.305 -11.942,-0.926 -8.269,-1.523 -10.711,-6.722 -11.332,-17.441 -0.609,-9.805 -0.609,-18.367 -0.609,-64.903 v -53.886" /><path
         id="path16"
         style="fill:#231f20;fill-opacity:1;fill-rule:nonzero;stroke:none"
         d="m 1039.99,400.488 c -1.23,0 -1.54,0.918 -1.23,2.149 l 28.17,75.301 c 0.31,1.23 0.92,2.757 1.83,2.757 0.93,0 1.23,-1.527 1.53,-2.757 l 27.56,-75.614 c 0.3,-0.918 0,-1.836 -1.54,-1.836 z m 62.14,-15.308 c 1.53,0 2.45,-0.606 3.06,-2.133 l 24.49,-64.902 c 1.54,-3.672 -0.61,-6.442 -2.75,-7.043 -3.06,-0.309 -4.29,-0.926 -4.29,-2.743 0,-2.144 3.68,-2.144 9.19,-2.476 24.49,-0.602 46.84,-0.602 57.86,-0.602 11.32,0 14.08,0.602 14.08,3.078 0,2.121 -1.53,2.434 -3.98,2.434 -3.68,0 -8.26,0.309 -12.86,1.238 -6.43,1.528 -15.3,5.805 -26.93,33.348 -19.6,46.539 -68.58,171.441 -75.93,188.277 -3.06,7.043 -4.9,9.805 -7.66,9.805 -3.05,0 -4.89,-3.375 -8.56,-12.25 L 991.008,338.965 c -6.125,-15.309 -11.945,-25.735 -26.028,-27.551 -2.441,-0.312 -6.722,-0.621 -9.484,-0.621 -2.453,0 -3.672,-0.617 -3.672,-2.434 0,-2.476 1.836,-3.078 5.813,-3.078 15.922,0 32.758,0.934 36.125,0.934 9.498,0 22.658,-0.934 32.448,-0.934 3.37,0 5.2,0.602 5.2,3.078 0,1.817 -0.92,2.434 -4.59,2.434 h -4.59 c -9.49,0 -12.24,3.965 -12.24,9.496 0,3.676 1.52,11.024 4.59,18.676 l 16.53,43.769 c 0.61,1.84 1.22,2.446 2.76,2.446 z m -56.02,175.117 c 8.88,0 14.7,6.726 14.7,15.301 0,8.269 -6.43,13.164 -14.39,13.164 -9.79,0 -14.09,-8.27 -14.09,-14.082 0,-6.43 3.98,-14.383 13.78,-14.383 z m 64.59,0 c 8.88,0 14.7,6.726 14.7,15.301 0,8.57 -6.43,13.472 -14.39,13.472 -9.79,0 -14.08,-8.265 -14.08,-14.39 0,-6.43 3.98,-14.383 13.77,-14.383" /><path
         id="path18"
         style="fill:#231f20;fill-opacity:1;fill-rule:nonzero;stroke:none"
         d="m 1299.14,434.477 h 1.53 c 10.4,11.324 55.1,56.933 63.98,67.347 8.57,10.102 15.31,17.75 15.31,22.953 0,3.375 -1.23,5.508 -4.29,6.129 -2.75,0.61 -3.98,1.223 -3.98,3.059 0,2.148 1.53,2.754 4.9,2.754 6.43,0 23.27,-0.914 31.54,-0.914 9.48,0 26.31,0.914 35.81,0.914 3.07,0 5.2,-0.606 5.2,-2.754 0,-2.137 -1.53,-2.754 -4.59,-2.754 -4.29,0 -11.94,-1.223 -17.75,-3.367 -9.5,-3.676 -19.91,-10.106 -33.06,-22.969 -9.5,-9.176 -55.72,-55.094 -66.13,-66.117 11.02,-14.387 71.02,-78.981 82.96,-90.313 13.47,-12.859 27.25,-26.629 43.77,-33.066 9.19,-3.676 15.31,-4.586 18.99,-4.586 2.14,0 3.98,-0.617 3.98,-2.434 0,-2.144 -1.53,-3.078 -7.35,-3.078 h -26.63 c -9.18,0 -14.7,0 -21.13,0.602 -16.53,1.547 -24.79,8.273 -37.96,19.898 -13.47,11.953 -73.78,82.664 -80.21,91.551 l -3.36,4.594 h -1.53 v -27.871 c 0,-28.153 0,-52.336 0.92,-65.508 0.61,-8.567 3.36,-15.317 11.01,-16.516 4.3,-0.617 11.02,-1.238 15.01,-1.238 2.45,0 3.97,-0.906 3.97,-2.434 0,-2.144 -2.44,-3.078 -5.81,-3.078 -17.14,0 -36.43,0.934 -44.08,0.934 -7.04,0 -26.33,-0.934 -38.57,-0.934 -3.99,0 -6.14,0.934 -6.14,3.078 0,1.528 1.23,2.434 4.91,2.434 4.59,0 8.27,0.621 11.02,1.238 6.12,1.199 7.65,7.949 8.88,16.824 1.53,12.864 1.53,37.047 1.53,65.2 v 53.886 c 0,46.536 0,55.098 -0.61,64.903 -0.62,10.406 -3.07,15.308 -13.17,17.441 -2.45,0.621 -7.65,0.926 -11.94,0.926 -3.37,0 -5.21,0.617 -5.21,2.754 0,2.148 2.15,2.754 6.74,2.754 16.23,0 35.52,-0.914 42.86,-0.914 7.35,0 26.64,0.914 37.04,0.914 4.3,0 6.43,-0.606 6.43,-2.754 0,-2.137 -1.84,-2.754 -4.28,-2.754 -3.07,0 -4.9,-0.305 -8.58,-0.926 -8.25,-1.523 -10.71,-6.722 -11.32,-17.441 -0.61,-9.805 -0.61,-18.367 -0.61,-64.903 v -13.464" /><path
         id="path20"
         style="fill:#231f20;fill-opacity:1;fill-rule:nonzero;stroke:none"
         d="m 1526.36,447.941 c 0,46.536 0,55.098 -0.61,64.903 -0.61,10.406 -3.06,15.308 -13.16,17.441 -2.46,0.621 -7.66,0.926 -11.95,0.926 -3.36,0 -5.2,0.617 -5.2,2.754 0,2.148 2.14,2.754 6.73,2.754 16.23,0 35.52,-0.914 44.08,-0.914 9.8,0 70.73,0 76.54,0.308 5.82,0.606 10.71,1.215 13.17,1.836 1.53,0.297 3.37,1.219 4.89,1.219 1.54,0 1.84,-1.219 1.84,-2.758 0,-2.133 -1.53,-5.812 -2.45,-19.887 -0.31,-3.07 -0.91,-16.539 -1.52,-20.21 -0.32,-1.532 -0.92,-3.364 -3.07,-3.364 -2.15,0 -2.75,1.528 -2.75,4.281 0,2.149 -0.31,7.348 -1.85,11.024 -2.13,5.508 -5.2,9.176 -20.5,11.012 -5.2,0.621 -37.36,1.23 -43.47,1.23 -1.53,0 -2.14,-0.922 -2.14,-3.066 v -77.45 c 0,-2.14 0.29,-3.367 2.14,-3.367 6.73,0 41.94,0 48.98,0.617 7.35,0.61 11.94,1.528 14.7,4.586 2.14,2.454 3.36,3.985 4.89,3.985 1.23,0 2.15,-0.613 2.15,-2.449 0,-1.84 -1.54,-6.739 -2.46,-22.348 -0.61,-6.129 -1.22,-18.367 -1.22,-20.516 0,-2.449 0,-5.812 -2.75,-5.812 -2.15,0 -2.76,1.215 -2.76,2.754 -0.31,3.058 -0.31,7.043 -1.23,11.015 -1.53,6.129 -5.81,10.723 -17.14,11.946 -5.81,0.613 -36.13,0.918 -43.46,0.918 -1.55,0 -1.84,-1.223 -1.84,-3.059 v -24.195 c 0,-10.403 -0.31,-38.567 0,-47.446 0.61,-21.117 5.51,-25.699 36.73,-25.699 7.96,0 20.82,0 28.78,3.672 7.95,3.652 11.63,10.082 13.78,22.637 0.6,3.375 1.21,4.59 3.36,4.59 2.45,0 2.45,-2.446 2.45,-5.512 0,-7.035 -2.45,-27.867 -3.98,-33.973 -2.14,-7.969 -4.9,-7.969 -16.53,-7.969 -46.23,0 -66.74,1.86 -84.8,1.86 -7.04,0 -26.33,-0.934 -38.57,-0.934 -3.99,0 -6.13,0.934 -6.13,3.078 0,1.528 1.22,2.434 4.9,2.434 4.59,0 8.27,0.621 11.02,1.238 6.12,1.199 7.65,7.949 8.88,16.824 1.53,12.864 1.53,37.047 1.53,65.2 v 53.886" /><path
         id="path22"
         style="fill:#231f20;fill-opacity:1;fill-rule:nonzero;stroke:none"
         d="m 1753.45,535.492 c 0.92,5.207 2.76,7.969 5.2,7.969 2.46,0 4.28,-1.539 8.27,-9.496 l 83.57,-172.656 83.27,174.804 c 2.14,4.891 3.98,7.348 6.73,7.348 2.76,0 4.6,-3.066 5.52,-9.496 l 27.85,-189.192 c 2.76,-19.281 5.82,-28.16 15.01,-30.921 8.88,-2.75 15,-3.059 18.98,-3.059 2.76,0 4.89,-0.313 4.89,-2.148 0,-2.43 -3.67,-3.364 -7.95,-3.364 -7.66,0 -49.91,0.934 -62.15,1.836 -7.04,0.621 -8.88,1.528 -8.88,3.363 0,1.551 1.22,2.461 3.37,3.372 1.83,0.621 2.75,4.578 1.53,13.168 l -18.37,134.691 h -1.22 l -66.74,-138.988 c -7.04,-14.364 -8.57,-17.129 -11.32,-17.129 -2.76,0 -5.82,6.109 -10.72,15.316 -7.35,14.07 -31.53,60.906 -35.2,69.485 -2.76,6.421 -21.13,45 -31.85,67.953 h -1.22 l -15.92,-121.84 c -0.61,-5.528 -0.92,-9.488 -0.92,-14.399 0,-5.8 3.99,-8.55 9.19,-9.785 5.51,-1.222 9.8,-1.531 12.86,-1.531 2.44,0 4.59,-0.617 4.59,-2.148 0,-2.762 -2.76,-3.364 -7.35,-3.364 -12.86,0 -26.64,0.934 -32.15,0.934 -5.81,0 -20.51,-0.934 -30.3,-0.934 -3.07,0 -5.52,0.602 -5.52,3.364 0,1.531 1.84,2.148 4.91,2.148 2.44,0 4.59,0 9.19,0.91 8.56,1.856 11.01,13.789 12.54,24.195 l 30.31,199.594" /><path
         id="path24"
         style="fill:#231f20;fill-opacity:1;fill-rule:nonzero;stroke:none"
         d="m 2075.17,447.941 c 0,46.536 0,55.098 -0.62,64.903 -0.61,10.406 -3.06,15.308 -13.16,17.441 -2.44,0.621 -7.66,0.926 -11.94,0.926 -3.37,0 -5.21,0.617 -5.21,2.754 0,2.148 2.15,2.754 6.75,2.754 16.22,0 35.5,-0.914 44.08,-0.914 9.79,0 70.71,0 76.53,0.308 5.81,0.606 10.71,1.215 13.16,1.836 1.53,0.297 3.37,1.219 4.9,1.219 1.53,0 1.84,-1.219 1.84,-2.758 0,-2.133 -1.54,-5.812 -2.46,-19.887 -0.29,-3.07 -0.91,-16.539 -1.53,-20.21 -0.3,-1.532 -0.91,-3.364 -3.06,-3.364 -2.14,0 -2.76,1.528 -2.76,4.281 0,2.149 -0.29,7.348 -1.83,11.024 -2.14,5.508 -5.2,9.176 -20.51,11.012 -5.2,0.621 -37.34,1.23 -43.48,1.23 -1.52,0 -2.13,-0.922 -2.13,-3.066 v -77.45 c 0,-2.14 0.31,-3.367 2.13,-3.367 6.75,0 41.95,0 48.99,0.617 7.35,0.61 11.94,1.528 14.7,4.586 2.13,2.454 3.36,3.985 4.89,3.985 1.23,0 2.15,-0.613 2.15,-2.449 0,-1.84 -1.53,-6.739 -2.45,-22.348 -0.62,-6.129 -1.23,-18.367 -1.23,-20.516 0,-2.449 0,-5.812 -2.75,-5.812 -2.14,0 -2.76,1.215 -2.76,2.754 -0.3,3.058 -0.3,7.043 -1.22,11.015 -1.53,6.129 -5.82,10.723 -17.14,11.946 -5.82,0.613 -36.13,0.918 -43.47,0.918 -1.53,0 -1.84,-1.223 -1.84,-3.059 v -24.195 c 0,-10.403 -0.31,-38.567 0,-47.446 0.61,-21.117 5.51,-25.699 36.73,-25.699 7.96,0 20.82,0 28.78,3.672 7.96,3.652 11.63,10.082 13.78,22.637 0.61,3.375 1.22,4.59 3.36,4.59 2.45,0 2.45,-2.446 2.45,-5.512 0,-7.035 -2.45,-27.867 -3.98,-33.973 -2.14,-7.969 -4.9,-7.969 -16.53,-7.969 -46.23,0 -66.74,1.86 -84.8,1.86 -7.04,0 -26.32,-0.934 -38.57,-0.934 -3.97,0 -6.12,0.934 -6.12,3.078 0,1.528 1.23,2.434 4.89,2.434 4.6,0 8.27,0.621 11.03,1.238 6.11,1.199 7.65,7.949 8.87,16.824 1.54,12.864 1.54,37.047 1.54,65.2 v 53.886" /><path
         id="path26"
         style="fill:#231f20;fill-opacity:1;fill-rule:nonzero;stroke:none"
         d="m 2288.4,394.055 c 0,-28.153 0,-52.336 -1.53,-65.2 -1.24,-8.875 -2.77,-15.625 -8.88,-16.824 -2.76,-0.617 -6.44,-1.238 -11.03,-1.238 -3.67,0 -4.89,-0.906 -4.89,-2.434 0,-2.144 2.13,-3.078 6.12,-3.078 12.24,0 31.52,0.934 38.58,0.934 15.3,0 42.86,-3.68 65.19,-3.68 56.64,0 88.48,21.715 102.55,36.117 17.14,17.453 33.36,46.84 33.36,85.411 0,36.433 -14.36,61.835 -29.68,77.761 -33.37,34.895 -84.49,34.895 -122.74,34.895 -18.38,0 -37.66,-0.914 -47.15,-0.914 -8.59,0 -27.87,0.914 -44.1,0.914 -4.59,0 -6.72,-0.606 -6.72,-2.754 0,-2.137 1.83,-2.754 5.2,-2.754 4.28,0 9.49,-0.305 11.93,-0.926 10.11,-2.133 12.55,-7.035 13.17,-17.441 0.62,-9.805 0.62,-18.367 0.62,-64.903 z m 38.27,58.785 c 0,24.18 0,50.82 0.29,61.226 0,3.364 0.91,4.903 3.67,6.118 2.46,1.23 13.79,2.148 19.91,2.148 23.87,0 58.79,-3.676 86.94,-30.613 13.17,-12.551 29.4,-37.653 29.4,-76.535 0,-31.532 -6.14,-59.391 -25.73,-76.219 -18.37,-15.93 -39.18,-22.063 -70.41,-22.063 -24.17,0 -36.12,6.442 -40.11,12.266 -2.43,3.363 -3.05,15.605 -3.36,23.262 -0.31,5.812 -0.6,29.386 -0.6,61.836 v 38.574" /><path
         id="path28"
         style="fill:#231f20;fill-opacity:1;fill-rule:nonzero;stroke:none"
         d="m 2585.49,447.941 c 0,46.536 0,55.098 -0.62,64.903 -0.6,10.406 -3.05,15.308 -13.15,17.441 -2.45,0.621 -7.66,0.926 -11.95,0.926 -3.34,0 -5.2,0.617 -5.2,2.754 0,2.148 2.15,2.754 6.73,2.754 16.22,0 35.53,-0.914 44.09,-0.914 9.81,0 70.72,0 76.54,0.308 5.82,0.606 10.72,1.215 13.18,1.836 1.52,0.297 3.34,1.219 4.87,1.219 1.54,0 1.86,-1.219 1.86,-2.758 0,-2.133 -1.54,-5.812 -2.46,-19.887 -0.31,-3.07 -0.93,-16.539 -1.53,-20.21 -0.31,-1.532 -0.93,-3.364 -3.07,-3.364 -2.13,0 -2.75,1.528 -2.75,4.281 0,2.149 -0.31,7.348 -1.83,11.024 -2.15,5.508 -5.21,9.176 -20.53,11.012 -5.2,0.621 -37.32,1.23 -43.47,1.23 -1.53,0 -2.13,-0.922 -2.13,-3.066 v -77.45 c 0,-2.14 0.31,-3.367 2.13,-3.367 6.75,0 41.94,0 49.01,0.617 7.34,0.61 11.93,1.528 14.69,4.586 2.13,2.454 3.34,3.985 4.88,3.985 1.24,0 2.14,-0.613 2.14,-2.449 0,-1.84 -1.53,-6.739 -2.44,-22.348 -0.61,-6.129 -1.24,-18.367 -1.24,-20.516 0,-2.449 0,-5.812 -2.74,-5.812 -2.14,0 -2.75,1.215 -2.75,2.754 -0.33,3.058 -0.33,7.043 -1.24,11.015 -1.52,6.129 -5.82,10.723 -17.13,11.946 -5.82,0.613 -36.12,0.918 -43.47,0.918 -1.53,0 -1.84,-1.223 -1.84,-3.059 v -24.195 c 0,-10.403 -0.31,-38.567 0,-47.446 0.6,-21.117 5.51,-25.699 36.72,-25.699 7.97,0 20.83,0 28.78,3.672 7.97,3.652 11.64,10.082 13.79,22.637 0.62,3.375 1.22,4.59 3.37,4.59 2.45,0 2.45,-2.446 2.45,-5.512 0,-7.035 -2.45,-27.867 -3.98,-33.973 -2.14,-7.969 -4.9,-7.969 -16.54,-7.969 -46.24,0 -66.74,1.86 -84.79,1.86 -7.04,0 -26.35,-0.934 -38.57,-0.934 -4,0 -6.13,0.934 -6.13,3.078 0,1.528 1.22,2.434 4.89,2.434 4.58,0 8.26,0.621 11.03,1.238 6.1,1.199 7.65,7.949 8.87,16.824 1.53,12.864 1.53,37.047 1.53,65.2 v 53.886" /><path
         id="path30"
         style="fill:#231f20;fill-opacity:1;fill-rule:nonzero;stroke:none"
         d="m 2834.11,394.055 c 0,-39.18 0,-60.309 6.45,-65.821 5.19,-4.578 13.16,-6.726 37.03,-6.726 16.22,0 28.15,0.308 35.83,8.566 3.68,3.981 7.35,12.563 7.95,18.371 0.31,2.758 0.92,4.594 3.37,4.594 2.14,0 2.45,-1.527 2.45,-5.203 0,-3.375 -2.14,-26.328 -4.6,-35.207 -1.82,-6.746 -3.37,-8.274 -19.28,-8.274 -44.09,0 -64.29,1.86 -89.09,1.86 -7.02,0 -26.33,-0.934 -38.57,-0.934 -3.98,0 -6.11,0.934 -6.11,3.078 0,1.528 1.2,2.434 4.87,2.434 4.6,0 8.29,0.621 11.03,1.238 6.13,1.199 7.66,7.949 8.88,16.824 1.52,12.864 1.52,37.047 1.52,65.2 v 53.886 c 0,46.536 0,55.098 -0.6,64.903 -0.59,10.406 -3.07,15.308 -13.15,17.441 -2.47,0.621 -6.15,0.926 -10.11,0.926 -3.37,0 -5.2,0.617 -5.2,2.754 0,2.148 2.15,2.754 6.73,2.754 14.38,0 33.69,-0.914 41.94,-0.914 7.35,0 29.69,0.914 41.62,0.914 4.29,0 6.44,-0.606 6.44,-2.754 0,-2.137 -1.84,-2.754 -5.51,-2.754 -3.37,0 -8.26,-0.305 -11.94,-0.926 -8.28,-1.523 -10.71,-6.722 -11.32,-17.441 -0.63,-9.805 -0.63,-18.367 -0.63,-64.903 v -53.886" /><path
         id="path32"
         style="fill:#231f20;fill-opacity:1;fill-rule:nonzero;stroke:none"
         d="m 2970.91,308.957 c -4.88,2.145 -5.8,3.672 -5.8,10.402 0,16.844 1.2,35.211 1.53,40.114 0.29,4.593 1.22,7.957 3.67,7.957 2.75,0 3.06,-2.758 3.06,-5.203 0,-3.985 1.22,-10.418 2.74,-15.618 6.76,-22.644 24.8,-30.921 43.79,-30.921 27.54,0 41.02,18.679 41.02,34.906 0,14.996 -4.61,29.386 -30,48.976 l -14.07,11.02 c -33.7,26.332 -45.32,47.758 -45.32,72.562 0,33.668 28.16,57.852 70.71,57.852 19.9,0 32.77,-3.055 40.72,-5.199 2.75,-0.61 4.28,-1.528 4.28,-3.676 0,-3.977 -1.22,-12.863 -1.22,-36.734 0,-6.743 -0.91,-9.184 -3.36,-9.184 -2.15,0 -3.06,1.836 -3.06,5.508 0,2.758 -1.53,12.238 -7.97,20.207 -4.58,5.812 -13.46,15 -33.36,15 -22.66,0 -36.43,-13.164 -36.43,-31.531 0,-14.082 7.04,-24.805 32.45,-44.082 l 8.56,-6.43 c 36.75,-28.469 50.21,-48.992 50.21,-78.063 0,-17.765 -6.73,-38.89 -28.78,-53.261 -15.3,-9.805 -32.45,-12.551 -48.67,-12.551 -17.76,0 -31.53,2.125 -44.7,7.949" /><path
         id="path34"
         style="fill:#231f20;fill-opacity:1;fill-rule:nonzero;stroke:none"
         d="m 3152.18,506.719 c -7.06,16.844 -12.26,20.207 -23.28,23.269 -4.59,1.223 -9.51,1.223 -11.94,1.223 -2.76,0 -3.67,0.918 -3.67,2.754 0,2.445 3.36,2.754 7.96,2.754 16.23,0 33.67,-0.914 44.38,-0.914 7.64,0 22.34,0.914 37.66,0.914 3.67,0 7.04,-0.606 7.04,-2.754 0,-2.137 -1.83,-2.754 -4.61,-2.754 -4.86,0 -9.47,-0.305 -11.92,-2.141 -2.15,-1.539 -3.06,-3.672 -3.06,-6.429 0,-3.985 2.77,-12.551 7.04,-23.575 l 52.66,-138.984 h 1.22 c 13.16,33.676 52.95,132.246 60.29,152.453 1.56,3.988 2.77,8.567 2.77,11.324 0,2.457 -1.21,4.903 -3.96,5.821 -3.68,1.226 -8.28,1.531 -12.26,1.531 -2.77,0 -5.21,0.305 -5.21,2.445 0,2.457 2.77,3.063 8.57,3.063 15.3,0 28.18,-0.914 32.14,-0.914 5.2,0 19.61,0.914 28.77,0.914 3.99,0 6.45,-0.606 6.45,-2.754 0,-2.137 -1.84,-2.754 -4.91,-2.754 -3.06,0 -9.49,0 -14.99,-3.68 -3.99,-2.754 -8.59,-7.957 -16.85,-27.547 -11.92,-28.773 -20.18,-45.308 -36.74,-82.964 -19.57,-44.688 -33.98,-78.055 -40.71,-93.364 -7.97,-17.773 -9.79,-22.648 -14.07,-22.648 -3.97,0 -5.82,4.273 -11.65,18.664 l -77.12,187.047" /><path
         id="path36"
         style="fill:#231f20;fill-opacity:1;fill-rule:nonzero;stroke:none"
         d="m 3417.28,447.941 c 0,46.536 0,55.098 -0.62,64.903 -0.61,10.406 -3.06,15.308 -13.15,17.441 -2.47,0.621 -7.66,0.926 -11.96,0.926 -3.34,0 -5.2,0.617 -5.2,2.754 0,2.148 2.15,2.754 6.73,2.754 16.23,0 35.52,-0.914 44.1,-0.914 9.77,0 70.72,0 76.54,0.308 5.82,0.606 10.69,1.215 13.16,1.836 1.54,0.297 3.35,1.219 4.88,1.219 1.53,0 1.86,-1.219 1.86,-2.758 0,-2.133 -1.53,-5.812 -2.46,-19.887 -0.31,-3.07 -0.93,-16.539 -1.52,-20.21 -0.31,-1.532 -0.94,-3.364 -3.08,-3.364 -2.15,0 -2.75,1.528 -2.75,4.281 0,2.149 -0.3,7.348 -1.84,11.024 -2.15,5.508 -5.19,9.176 -20.51,11.012 -5.21,0.621 -37.35,1.23 -43.48,1.23 -1.52,0 -2.14,-0.922 -2.14,-3.066 v -77.45 c 0,-2.14 0.32,-3.367 2.14,-3.367 6.76,0 41.95,0 49.01,0.617 7.33,0.61 11.93,1.528 14.67,4.586 2.15,2.454 3.37,3.985 4.9,3.985 1.23,0 2.14,-0.613 2.14,-2.449 0,-1.84 -1.52,-6.739 -2.43,-22.348 -0.63,-6.129 -1.24,-18.367 -1.24,-20.516 0,-2.449 0,-5.812 -2.74,-5.812 -2.15,0 -2.75,1.215 -2.75,2.754 -0.33,3.058 -0.33,7.043 -1.24,11.015 -1.52,6.129 -5.82,10.723 -17.13,11.946 -5.83,0.613 -36.13,0.918 -43.47,0.918 -1.54,0 -1.86,-1.223 -1.86,-3.059 v -24.195 c 0,-10.403 -0.29,-38.567 0,-47.446 0.62,-21.117 5.53,-25.699 36.74,-25.699 7.97,0 20.83,0 28.78,3.672 7.97,3.652 11.64,10.082 13.79,22.637 0.61,3.375 1.22,4.59 3.36,4.59 2.46,0 2.46,-2.446 2.46,-5.512 0,-7.035 -2.46,-27.867 -4.01,-33.973 -2.13,-7.969 -4.87,-7.969 -16.51,-7.969 -46.24,0 -66.74,1.86 -84.81,1.86 -7.04,0 -26.33,-0.934 -38.55,-0.934 -4.01,0 -6.15,0.934 -6.15,3.078 0,1.528 1.24,2.434 4.91,2.434 4.58,0 8.25,0.621 11.03,1.238 6.1,1.199 7.63,7.949 8.87,16.824 1.53,12.864 1.53,37.047 1.53,65.2 v 53.886" /><path
         id="path38"
         style="fill:#231f20;fill-opacity:1;fill-rule:nonzero;stroke:none"
         d="m 3627.22,394.055 c 0,-28.153 0,-52.336 -1.54,-65.2 -1.24,-8.875 -2.76,-15.625 -8.89,-16.824 -2.75,-0.617 -6.42,-1.238 -11.01,-1.238 -3.67,0 -4.91,-0.906 -4.91,-2.434 0,-2.144 2.15,-3.078 6.11,-3.078 12.27,0 31.55,0.934 37.37,0.934 4.58,0 27.24,-0.934 45,-0.934 3.98,0 6.11,0.934 6.11,3.078 0,1.528 -1.22,2.434 -3.67,2.434 -3.68,0 -10.41,0.621 -14.99,1.238 -9.19,1.199 -11.03,7.949 -11.94,16.824 -1.52,12.864 -1.52,37.047 -1.52,65.512 v 4.285 c 0,1.836 0.91,2.453 2.43,2.453 l 26.63,-0.617 c 2.15,0 3.99,-0.3 5.51,-2.14 3.98,-4.59 18.07,-25.41 30.33,-42.243 17.13,-23.574 28.77,-37.96 41.93,-45.003 7.95,-4.293 15.62,-5.821 32.75,-5.821 h 29.09 c 3.65,0 5.8,0.602 5.8,3.078 0,1.528 -1.22,2.434 -3.67,2.434 -2.44,0 -5.2,0.309 -8.54,0.91 -4.61,0.926 -17.16,3.055 -34.32,20.828 -18.04,18.981 -39.18,46.215 -66.43,80.508 30.92,25.106 40.42,45.918 40.42,68.574 0,20.508 -12.26,36.125 -20.81,41.95 -16.55,11.32 -37.05,13.156 -56.35,13.156 -9.48,0 -32.74,-0.914 -43.15,-0.914 -6.43,0 -25.71,0.914 -41.94,0.914 -4.58,0 -6.73,-0.606 -6.73,-2.754 0,-2.137 1.82,-2.754 5.2,-2.754 4.29,0 9.5,-0.305 11.93,-0.926 10.12,-2.133 12.56,-7.035 13.17,-17.441 0.63,-9.805 0.63,-18.367 0.63,-64.903 z m 36.12,122.765 c 0,2.446 0.6,3.676 2.74,4.282 3.06,0.918 8.57,1.23 16.22,1.23 18.07,0 46.85,-12.555 46.85,-56.023 0,-25.106 -8.88,-39.18 -18.07,-45.918 -5.5,-3.977 -9.49,-5.207 -21.73,-5.207 -7.66,0 -16.85,0.918 -23.27,3.066 -2.14,0.918 -2.74,2.141 -2.74,5.504 v 93.066" /><path
         id="path40"
         style="fill:#231f20;fill-opacity:1;fill-rule:nonzero;stroke:none"
         d="m 3921.53,434.477 h 1.56 c 10.4,11.324 55.09,56.933 63.97,67.347 8.58,10.102 15.31,17.75 15.31,22.953 0,3.375 -1.24,5.508 -4.28,6.129 -2.76,0.61 -3.97,1.223 -3.97,3.059 0,2.148 1.52,2.754 4.87,2.754 6.44,0 23.29,-0.914 31.55,-0.914 9.49,0 26.34,0.914 35.83,0.914 3.05,0 5.2,-0.606 5.2,-2.754 0,-2.137 -1.53,-2.754 -4.61,-2.754 -4.26,0 -11.94,-1.223 -17.74,-3.367 -9.5,-3.676 -19.9,-10.106 -33.08,-22.969 -9.47,-9.176 -55.71,-55.094 -66.11,-66.117 11.01,-14.387 71.01,-78.981 82.96,-90.313 13.47,-12.859 27.22,-26.629 43.79,-33.066 9.16,-3.676 15.29,-4.586 18.96,-4.586 2.15,0 3.99,-0.617 3.99,-2.434 0,-2.144 -1.53,-3.078 -7.35,-3.078 h -26.63 c -9.19,0 -14.7,0 -21.14,0.602 -16.51,1.547 -24.8,8.273 -37.94,19.898 -13.48,11.953 -73.78,82.664 -80.21,91.551 l -3.37,4.594 h -1.56 v -27.871 c 0,-28.153 0,-52.336 0.94,-65.508 0.62,-8.567 3.36,-15.317 11.02,-16.516 4.27,-0.617 11.02,-1.238 15.01,-1.238 2.44,0 3.96,-0.906 3.96,-2.434 0,-2.144 -2.43,-3.078 -5.8,-3.078 -17.15,0 -36.44,0.934 -44.09,0.934 -7.04,0 -26.32,-0.934 -38.59,-0.934 -3.96,0 -6.11,0.934 -6.11,3.078 0,1.528 1.24,2.434 4.92,2.434 4.58,0 8.25,0.621 11,1.238 6.13,1.199 7.66,7.949 8.9,16.824 1.53,12.864 1.53,37.047 1.53,65.2 v 53.886 c 0,46.536 0,55.098 -0.63,64.903 -0.61,10.406 -3.04,15.308 -13.16,17.441 -2.44,0.621 -7.64,0.926 -11.93,0.926 -3.39,0 -5.21,0.617 -5.21,2.754 0,2.148 2.15,2.754 6.73,2.754 16.23,0 35.51,-0.914 42.86,-0.914 7.34,0 26.63,0.914 37.03,0.914 4.3,0 6.44,-0.606 6.44,-2.754 0,-2.137 -1.84,-2.754 -4.29,-2.754 -3.06,0 -4.89,-0.305 -8.57,-0.926 -8.28,-1.523 -10.72,-6.722 -11.33,-17.441 -0.63,-9.805 -0.63,-18.367 -0.63,-64.903 v -13.464" /><path
         id="path42"
         style="fill:#231f20;fill-opacity:1;fill-rule:nonzero;stroke:none"
         d="m 4145.19,447.941 c 0,46.536 0,55.098 -0.63,64.903 -0.6,10.406 -3.05,15.308 -13.14,17.441 -2.46,0.621 -7.66,0.926 -11.96,0.926 -3.35,0 -5.2,0.617 -5.2,2.754 0,2.148 2.15,2.754 6.73,2.754 16.23,0 35.52,-0.914 44.09,-0.914 9.81,0 70.72,0 76.55,0.308 5.82,0.606 10.71,1.215 13.16,1.836 1.54,0.297 3.35,1.219 4.88,1.219 1.55,0 1.85,-1.219 1.85,-2.758 0,-2.133 -1.52,-5.812 -2.45,-19.887 -0.31,-3.07 -0.93,-16.539 -1.53,-20.21 -0.3,-1.532 -0.93,-3.364 -3.08,-3.364 -2.12,0 -2.74,1.528 -2.74,4.281 0,2.149 -0.3,7.348 -1.84,11.024 -2.15,5.508 -5.2,9.176 -20.51,11.012 -5.21,0.621 -37.35,1.23 -43.48,1.23 -1.52,0 -2.12,-0.922 -2.12,-3.066 v -77.45 c 0,-2.14 0.3,-3.367 2.12,-3.367 6.75,0 41.95,0 49,0.617 7.36,0.61 11.94,1.528 14.71,4.586 2.12,2.454 3.34,3.985 4.86,3.985 1.24,0 2.15,-0.613 2.15,-2.449 0,-1.84 -1.52,-6.739 -2.43,-22.348 -0.63,-6.129 -1.24,-18.367 -1.24,-20.516 0,-2.449 0,-5.812 -2.74,-5.812 -2.15,0 -2.75,1.215 -2.75,2.754 -0.33,3.058 -0.33,7.043 -1.24,11.015 -1.53,6.129 -5.82,10.723 -17.14,11.946 -5.82,0.613 -36.12,0.918 -43.46,0.918 -1.54,0 -1.84,-1.223 -1.84,-3.059 v -24.195 c 0,-10.403 -0.31,-38.567 0,-47.446 0.6,-21.117 5.51,-25.699 36.72,-25.699 7.97,0 20.83,0 28.78,3.672 7.97,3.652 11.64,10.082 13.79,22.637 0.61,3.375 1.21,4.59 3.36,4.59 2.46,0 2.46,-2.446 2.46,-5.512 0,-7.035 -2.46,-27.867 -3.99,-33.973 -2.15,-7.969 -4.89,-7.969 -16.53,-7.969 -46.24,0 -66.74,1.86 -84.81,1.86 -7.04,0 -26.33,-0.934 -38.56,-0.934 -4,0 -6.12,0.934 -6.12,3.078 0,1.528 1.21,2.434 4.89,2.434 4.58,0 8.25,0.621 11.02,1.238 6.11,1.199 7.66,7.949 8.87,16.824 1.54,12.864 1.54,37.047 1.54,65.2 v 53.886" /><path
         id="path44"
         style="fill:#231f20;fill-opacity:1;fill-rule:nonzero;stroke:none"
         d="m 4394.67,519.574 -45.6,-1.226 c -17.77,-0.61 -25.1,-2.137 -29.7,-8.875 -3.06,-4.598 -4.58,-8.27 -5.21,-10.715 -0.62,-2.445 -1.52,-3.676 -3.36,-3.676 -2.13,0 -2.74,1.535 -2.74,4.902 0,4.891 5.82,32.754 6.41,35.211 0.93,3.973 1.84,5.809 3.68,5.809 2.46,0 5.51,-3.055 13.15,-3.676 8.9,-0.918 20.52,-1.523 30.63,-1.523 h 121.21 c 19.62,0 26.97,3.062 29.4,3.062 2.15,0 2.46,-1.836 2.46,-6.433 0,-6.43 -0.93,-27.559 -0.93,-35.512 -0.29,-3.055 -0.91,-4.891 -2.74,-4.891 -2.46,0 -3.08,1.524 -3.37,6.117 l -0.3,3.364 c -0.63,7.961 -8.89,16.535 -36.14,17.144 l -38.57,0.918 V 394.055 c 0,-28.153 0,-52.336 1.52,-65.508 0.93,-8.567 2.77,-15.317 11.96,-16.516 4.26,-0.617 11,-1.238 15.6,-1.238 3.36,0 4.89,-0.906 4.89,-2.434 0,-2.144 -2.43,-3.078 -5.82,-3.078 -20.19,0 -39.47,0.934 -48.05,0.934 -7.02,0 -26.32,-0.934 -38.57,-0.934 -3.98,0 -6.13,0.934 -6.13,3.078 0,1.528 1.22,2.434 4.89,2.434 4.61,0 8.28,0.621 11.03,1.238 6.13,1.199 7.97,7.949 8.87,16.824 1.53,12.864 1.53,37.047 1.53,65.2 v 125.519" /><path
         id="path46"
         style="fill:#1c63b7;fill-opacity:1;fill-rule:nonzero;stroke:none"
         d="M 359.172,539.816 C 352.457,512.195 340.113,480.086 321.051,442.277 264.004,329.125 148.535,100.59 132.094,68.0547 c 15.929,-12.0742 33.082,-22.9336 51.554,-32.2461 11.719,-5.9023 23.618,-10.9609 35.645,-15.375 15.059,29.8477 96.523,191.4374 163.934,325.1214 66.304,131.519 -6.965,184.187 -24.055,194.261" /><path
         id="path48"
         style="fill:#1c63b7;fill-opacity:1;fill-rule:nonzero;stroke:none"
         d="M 303.684,666.586 C 192.855,656.375 89.5977,591.094 35.7969,484.379 -20.1758,373.352 -8.25781,245.953 55.8477,149.242 78.2813,193.746 178.844,393.168 243.434,521.293 c 52.855,104.828 60.214,136.043 60.25,145.293" /><path
         id="path50"
         style="fill:#1c63b7;fill-opacity:1;fill-rule:nonzero;stroke:none"
         d="M 333.773,667.969 C 360.27,639.676 372.418,603.367 361.156,548.66 479.402,488.012 499.363,413.875 489.441,350.566 602.125,293.371 626.555,224.012 620.797,163.031 c 3.992,6.735 7.851,13.539 11.426,20.645 83.035,164.687 16.84,365.523 -147.86,448.558 -48.379,24.399 -99.867,35.805 -150.59,35.735" /><path
         id="path52"
         style="fill:#1c63b7;fill-opacity:1;fill-rule:nonzero;stroke:none"
         d="M 487.813,341.594 C 480.797,306.91 465.543,275.949 453.941,252.934 428.941,203.348 344.848,36.5742 326.461,0.0742188 368.734,-0.832031 410.574,6.35156 449.801,20.8438 c 20.906,41.4921 42.801,84.9062 63.39,125.7192 68.176,135.226 -11.218,187.101 -25.378,195.031" /><path
         id="path54"
         style="fill:#231f20;fill-opacity:1;fill-rule:nonzero;stroke:none"
         d="m 856.305,165.727 c -1.543,14.285 -11.071,20.449 -24.797,20.449 -11.203,0 -22.41,-4.063 -22.41,-17.09 0,-12.324 15.965,-14.152 32.074,-17.793 15.973,-3.645 31.937,-9.238 31.937,-28.859 0,-21.289 -20.867,-29.8324 -39.082,-29.8324 -22.41,0 -41.324,10.9254 -41.324,35.3004 h 12.61 c 0,-16.804 14.007,-24.089 29.136,-24.089 12.043,0 25.356,3.777 25.356,18.203 0,13.73 -15.973,16.113 -31.938,19.609 -15.969,3.504 -32.074,8.125 -32.074,26.473 0,20.312 18.062,29.277 36.277,29.277 20.45,0 35.996,-9.656 36.836,-31.648 h -12.601" /><path
         id="path56"
         style="fill:#231f20;fill-opacity:1;fill-rule:nonzero;stroke:none"
         d="m 987.914,94.9844 h -13.867 l -22.832,84.0426 h -0.277 L 927.82,94.9844 H 913.953 L 888.32,194.992 h 13.59 l 19.61,-83.203 h 0.281 l 22.414,83.203 h 14.422 l 22.133,-83.203 h 0.281 l 20.309,83.203 h 13.31 L 987.914,94.9844" /><path
         id="path58"
         style="fill:#231f20;fill-opacity:1;fill-rule:nonzero;stroke:none"
         d="m 1036.31,194.992 h 69.06 v -11.199 h -55.76 v -31.797 h 51.97 v -11.211 h -51.97 v -34.59 h 56.18 V 94.9844 h -69.48 V 194.992" /><path
         id="path60"
         style="fill:#231f20;fill-opacity:1;fill-rule:nonzero;stroke:none"
         d="m 1145.65,106.195 h 22.13 c 9.1,0 33.62,2.52 33.62,39.356 0,23.816 -8.83,38.242 -33.34,38.242 h -22.41 z m -13.31,88.797 h 34.32 c 30.82,0 48.05,-15.398 48.05,-47.617 0,-33.484 -14.71,-52.3906 -48.05,-52.3906 h -34.32 V 194.992" /><path
         id="path62"
         style="fill:#231f20;fill-opacity:1;fill-rule:nonzero;stroke:none"
         d="m 1241.96,194.992 h 13.31 V 94.9844 h -13.31 V 194.992" /><path
         id="path64"
         style="fill:#231f20;fill-opacity:1;fill-rule:nonzero;stroke:none"
         d="m 1346.02,165.727 c -1.55,14.285 -11.07,20.449 -24.8,20.449 -11.21,0 -22.41,-4.063 -22.41,-17.09 0,-12.324 15.97,-14.152 32.07,-17.793 15.98,-3.645 31.94,-9.238 31.94,-28.859 0,-21.289 -20.87,-29.8324 -39.08,-29.8324 -22.41,0 -41.32,10.9254 -41.32,35.3004 h 12.6 c 0,-16.804 14.01,-24.089 29.14,-24.089 12.05,0 25.36,3.777 25.36,18.203 0,13.73 -15.98,16.113 -31.94,19.609 -15.97,3.504 -32.08,8.125 -32.08,26.473 0,20.312 18.07,29.277 36.28,29.277 20.45,0 36,-9.656 36.84,-31.648 h -12.6" /><path
         id="path66"
         style="fill:#231f20;fill-opacity:1;fill-rule:nonzero;stroke:none"
         d="m 1389.38,194.992 h 13.31 v -42.996 h 52.67 v 42.996 h 13.31 V 94.9844 h -13.31 v 45.8006 h -52.67 V 94.9844 h -13.31 V 194.992" /><path
         id="path68"
         style="fill:#231f20;fill-opacity:1;fill-rule:nonzero;stroke:none"
         d="m 1550.66,194.992 h 18.21 l 31.52,-84.043 31.66,84.043 h 18.2 V 94.9844 h -12.61 v 83.2036 h -0.27 l -31.24,-83.2036 h -11.35 l -31.24,83.2036 h -0.27 V 94.9844 h -12.61 V 194.992" /><path
         id="path70"
         style="fill:#231f20;fill-opacity:1;fill-rule:nonzero;stroke:none"
         d="m 1682.82,194.992 h 69.05 v -11.199 h -55.75 v -31.797 h 51.97 v -11.211 h -51.97 v -34.59 h 56.17 V 94.9844 h -69.47 V 194.992" /><path
         id="path72"
         style="fill:#231f20;fill-opacity:1;fill-rule:nonzero;stroke:none"
         d="m 1792.16,106.195 h 22.14 c 9.1,0 33.62,2.52 33.62,39.356 0,23.816 -8.82,38.242 -33.34,38.242 h -22.42 z m -13.3,88.797 h 34.32 c 30.82,0 48.05,-15.398 48.05,-47.617 0,-33.484 -14.71,-52.3906 -48.05,-52.3906 h -34.32 V 194.992" /><path
         id="path74"
         style="fill:#231f20;fill-opacity:1;fill-rule:nonzero;stroke:none"
         d="m 1888.47,194.992 h 13.31 V 94.9844 h -13.31 V 194.992" /><path
         id="path76"
         style="fill:#231f20;fill-opacity:1;fill-rule:nonzero;stroke:none"
         d="m 2004.99,164.887 c -2.81,14.14 -14.15,21.289 -28.01,21.289 -23.82,0 -33.91,-19.61 -33.91,-40.488 0,-22.833 10.09,-41.875 34.04,-41.875 17.51,0 27.6,12.324 28.86,28.847 h 13.3 c -2.52,-24.933 -18.06,-40.0584 -43.28,-40.0584 -31.09,0 -46.22,22.9764 -46.22,52.1094 0,28.992 16.52,52.664 47.34,52.664 20.87,0 38.1,-11.199 41.19,-32.488 h -13.31" /><path
         id="path78"
         style="fill:#231f20;fill-opacity:1;fill-rule:nonzero;stroke:none"
         d="m 2062.08,136.301 h 33.89 l -16.67,46.652 h -0.27 z m 9.95,58.691 h 14.7 l 39.09,-100.0076 h -14.72 l -10.92,30.1176 h -42.3 l -11.21,-30.1176 h -13.73 l 39.09,100.0076" /><path
         id="path80"
         style="fill:#231f20;fill-opacity:1;fill-rule:nonzero;stroke:none"
         d="m 2145.37,194.992 h 13.3 v -88.797 h 52.95 V 94.9844 h -66.25 V 194.992" /><path
         id="path82"
         style="fill:#231f20;fill-opacity:1;fill-rule:nonzero;stroke:none"
         d="m 2290.14,147.094 h 26.05 c 14.99,-0.137 21.86,6.445 21.86,18.347 0,11.907 -6.87,18.352 -21.86,18.352 h -26.05 z m -13.31,47.898 h 43.84 c 19.9,0 30.69,-11.062 30.69,-29.551 0,-18.484 -10.79,-29.695 -30.69,-29.558 h -30.53 V 94.9844 h -13.31 V 194.992" /><path
         id="path84"
         style="fill:#231f20;fill-opacity:1;fill-rule:nonzero;stroke:none"
         d="m 2416.3,148.91 c 12.46,0 23.1,3.223 23.1,17.793 0,9.805 -5.32,17.09 -17.78,17.09 h -33.07 V 148.91 Z m -41.05,46.082 h 47.06 c 18.77,0 30.4,-10.222 30.4,-26.191 0,-12.039 -5.32,-21.992 -17.37,-25.352 v -0.281 c 11.63,-2.238 14.02,-10.781 14.99,-20.586 0.84,-9.805 0.29,-20.734 5.88,-27.5976 h -14.84 c -3.78,4.0625 -1.68,14.8436 -3.65,24.6486 -1.39,9.812 -3.77,18.074 -16.67,18.074 h -32.5 V 94.9844 h -13.3 V 194.992" /><path
         id="path86"
         style="fill:#231f20;fill-opacity:1;fill-rule:nonzero;stroke:none"
         d="m 2523.96,103.813 c 24.36,0 34.59,21.003 34.59,41.179 0,20.168 -10.23,41.184 -34.59,41.184 -24.38,0 -34.6,-21.016 -34.6,-41.184 0,-20.176 10.22,-41.179 34.6,-41.179 z m 0,93.562 c 31.79,0 47.9,-25.215 47.9,-52.383 0,-27.176 -16.11,-52.3904 -47.9,-52.3904 -31.8,0 -47.92,25.2144 -47.92,52.3904 0,27.168 16.12,52.383 47.92,52.383" /><path
         id="path88"
         style="fill:#231f20;fill-opacity:1;fill-rule:nonzero;stroke:none"
         d="m 2610.45,106.195 h 22.14 c 9.1,0 33.61,2.52 33.61,39.356 0,23.816 -8.82,38.242 -33.34,38.242 h -22.41 z m -13.3,88.797 h 34.31 c 30.83,0 48.05,-15.398 48.05,-47.617 0,-33.484 -14.71,-52.3906 -48.05,-52.3906 h -34.31 V 194.992" /><path
         id="path90"
         style="fill:#231f20;fill-opacity:1;fill-rule:nonzero;stroke:none"
         d="m 2784.65,131.125 c 0,-25.215 -14.44,-38.5234 -39.37,-38.5234 -25.77,0 -41.04,11.9024 -41.04,38.5234 v 63.867 h 13.31 v -63.867 c 0,-17.656 10.09,-27.312 27.73,-27.312 16.81,0 26.06,9.656 26.06,27.312 v 63.867 h 13.31 v -63.867" /><path
         id="path92"
         style="fill:#231f20;fill-opacity:1;fill-rule:nonzero;stroke:none"
         d="m 2885.29,164.887 c -2.79,14.14 -14.14,21.289 -28,21.289 -23.82,0 -33.91,-19.61 -33.91,-40.488 0,-22.833 10.09,-41.875 34.04,-41.875 17.51,0 27.6,12.324 28.86,28.847 h 13.3 c -2.52,-24.933 -18.07,-40.0584 -43.28,-40.0584 -31.09,0 -46.22,22.9764 -46.22,52.1094 0,28.992 16.52,52.664 47.34,52.664 20.87,0 38.1,-11.199 41.18,-32.488 h -13.31" /><path
         id="path94"
         style="fill:#231f20;fill-opacity:1;fill-rule:nonzero;stroke:none"
         d="m 2945.74,183.793 h -33.33 v 11.199 h 79.98 v -11.199 h -33.34 V 94.9844 h -13.31 v 88.8086" /><path
         id="path96"
         style="fill:#231f20;fill-opacity:1;fill-rule:nonzero;stroke:none"
         d="m 3070.36,165.727 c -1.54,14.285 -11.06,20.449 -24.79,20.449 -11.21,0 -22.42,-4.063 -22.42,-17.09 0,-12.324 15.97,-14.152 32.08,-17.793 15.97,-3.645 31.94,-9.238 31.94,-28.859 0,-21.289 -20.87,-29.8324 -39.08,-29.8324 -22.42,0 -41.32,10.9254 -41.32,35.3004 h 12.61 c 0,-16.804 14,-24.089 29.13,-24.089 12.05,0 25.35,3.777 25.35,18.203 0,13.73 -15.97,16.113 -31.94,19.609 -15.96,3.504 -32.08,8.125 -32.08,26.473 0,20.312 18.08,29.277 36.28,29.277 20.46,0 36.01,-9.656 36.85,-31.648 h -12.61" /><path
         id="path98"
         style="fill:#231f20;fill-opacity:1;fill-rule:nonzero;stroke:none"
         d="m 3176.88,136.301 h 33.89 l -16.67,46.652 h -0.27 z m 9.94,58.691 h 14.71 l 39.08,-100.0076 h -14.71 l -10.92,30.1176 h -42.3 l -11.22,-30.1176 h -13.72 l 39.08,100.0076" /><path
         id="path100"
         style="fill:#231f20;fill-opacity:1;fill-rule:nonzero;stroke:none"
         d="m 3334.27,107.453 c -7.71,-10.5077 -20.31,-14.8514 -32.07,-14.8514 -29.85,0 -47.63,24.3754 -47.63,50.4294 0,29.129 15.97,54.344 47.63,54.344 21.84,0 39.22,-9.805 43,-33.191 h -13.31 c -2.66,15.125 -14.85,21.992 -29.69,21.992 -24.24,0 -34.33,-21.016 -34.33,-42.442 0,-20.879 12.05,-39.921 34.33,-39.921 20.58,0 32.91,14.421 32.07,32.636 h -31.94 v 11.199 h 43.85 V 94.9844 h -8.41 l -3.5,12.4686" /><path
         id="path102"
         style="fill:#231f20;fill-opacity:1;fill-rule:nonzero;stroke:none"
         d="m 3376.93,194.992 h 69.06 v -11.199 h -55.76 v -31.797 h 51.98 v -11.211 h -51.98 v -34.59 h 56.18 V 94.9844 h -69.48 V 194.992" /><path
         id="path104"
         style="fill:#231f20;fill-opacity:1;fill-rule:nonzero;stroke:none"
         d="m 3474.92,194.992 h 14.15 l 52.67,-81.101 h 0.28 v 81.101 h 12.61 V 94.9844 h -14.57 l -52.25,80.2616 h -0.28 V 94.9844 h -12.61 V 194.992" /><path
         id="path106"
         style="fill:#231f20;fill-opacity:1;fill-rule:nonzero;stroke:none"
         d="m 3655.56,164.887 c -2.81,14.14 -14.14,21.289 -28.01,21.289 -23.82,0 -33.91,-19.61 -33.91,-40.488 0,-22.833 10.09,-41.875 34.05,-41.875 17.51,0 27.59,12.324 28.85,28.847 h 13.3 c -2.52,-24.933 -18.06,-40.0584 -43.28,-40.0584 -31.09,0 -46.22,22.9764 -46.22,52.1094 0,28.992 16.53,52.664 47.35,52.664 20.86,0 38.09,-11.199 41.18,-32.488 h -13.31" /><path
         id="path108"
         style="fill:#231f20;fill-opacity:1;fill-rule:nonzero;stroke:none"
         d="M 3735.34,135.883 V 94.9844 h -13.3 v 40.8986 l -38.66,59.109 h 15.83 l 29.97,-47.617 29.28,47.617 h 15.12 l -38.24,-59.109" /></g></g></svg>