<?xml version="1.0" encoding="utf-8"?>
<!-- Generator: Adobe Illustrator 23.0.3, SVG Export Plug-In . SVG Version: 6.00 Build 0)  -->
<svg version="1.1" id="Layer_1" xmlns="http://www.w3.org/2000/svg" xmlns:xlink="http://www.w3.org/1999/xlink" x="0px" y="0px"
	 viewBox="0 0 451.5 66.8" style="enable-background:new 0 0 451.5 66.8;" xml:space="preserve">
<style type="text/css">
	.st0{fill:#1D1D1B;}
	.st1{fill:#005CA8;}
</style>
<path class="st0" d="M84.71,27.39c0,3.92,0,6.03,0.64,6.58c0.52,0.46,1.32,0.67,3.7,0.67c1.62,0,2.82-0.03,3.58-0.86
	c0.37-0.4,0.73-1.26,0.8-1.84c0.03-0.28,0.09-0.46,0.34-0.46c0.21,0,0.25,0.15,0.25,0.52c0,0.34-0.21,2.63-0.46,3.52
	c-0.18,0.68-0.34,0.83-1.93,0.83c-4.41,0-6.43-0.19-8.91-0.19c-0.7,0-2.63,0.09-3.86,0.09c-0.4,0-0.61-0.09-0.61-0.31
	c0-0.15,0.12-0.24,0.49-0.24c0.46,0,0.83-0.06,1.1-0.12c0.61-0.12,0.77-0.79,0.89-1.68c0.15-1.29,0.15-3.7,0.15-6.52V22
	c0-4.65,0-5.51-0.06-6.49c-0.06-1.04-0.31-1.53-1.32-1.74c-0.24-0.06-0.61-0.09-1.01-0.09c-0.34,0-0.52-0.06-0.52-0.28
	c0-0.21,0.21-0.28,0.67-0.28c1.44,0,3.37,0.09,4.19,0.09c0.73,0,2.97-0.09,4.16-0.09c0.43,0,0.64,0.06,0.64,0.28
	c0,0.21-0.18,0.28-0.55,0.28c-0.34,0-0.83,0.03-1.19,0.09c-0.83,0.15-1.07,0.67-1.13,1.74c-0.06,0.98-0.06,1.84-0.06,6.49V27.39z"/>
<path class="st0" d="M111.07,10.77c0.89,0,1.47-0.67,1.47-1.53c0-0.86-0.64-1.35-1.44-1.35c-0.98,0-1.41,0.83-1.41,1.44
	C109.69,9.97,110.09,10.77,111.07,10.77z M104.61,10.77c0.89,0,1.47-0.67,1.47-1.53c0-0.83-0.64-1.32-1.44-1.32
	c-0.98,0-1.41,0.83-1.41,1.41C103.23,9.97,103.63,10.77,104.61,10.77z M110.21,28.28c0.15,0,0.24,0.06,0.31,0.21l2.45,6.49
	c0.15,0.37-0.06,0.64-0.28,0.7c-0.31,0.03-0.43,0.09-0.43,0.27c0,0.21,0.37,0.21,0.92,0.25c2.45,0.06,4.68,0.06,5.79,0.06
	c1.13,0,1.41-0.06,1.41-0.31c0-0.21-0.15-0.24-0.4-0.24c-0.37,0-0.83-0.03-1.28-0.12c-0.64-0.15-1.53-0.58-2.69-3.33
	c-1.96-4.65-6.86-17.14-7.59-18.83c-0.31-0.7-0.49-0.98-0.77-0.98c-0.31,0-0.49,0.34-0.86,1.23L99.1,32.9
	c-0.61,1.53-1.19,2.57-2.6,2.75c-0.24,0.03-0.67,0.06-0.95,0.06c-0.25,0-0.37,0.06-0.37,0.24c0,0.25,0.18,0.31,0.58,0.31
	c1.59,0,3.28-0.09,3.61-0.09c0.95,0,2.27,0.09,3.24,0.09c0.34,0,0.52-0.06,0.52-0.31c0-0.18-0.09-0.24-0.46-0.24h-0.46
	c-0.95,0-1.22-0.4-1.22-0.95c0-0.37,0.15-1.1,0.46-1.87l1.65-4.38c0.06-0.18,0.12-0.24,0.28-0.24H110.21z M104,26.75
	c-0.12,0-0.15-0.09-0.12-0.21l2.82-7.53c0.03-0.12,0.09-0.28,0.18-0.28s0.12,0.15,0.15,0.28l2.76,7.56c0.03,0.09,0,0.18-0.15,0.18
	H104z"/>
<path class="st0" d="M129.91,23.35h0.15c1.04-1.13,5.51-5.69,6.4-6.73c0.86-1.01,1.53-1.78,1.53-2.3c0-0.34-0.12-0.55-0.43-0.61
	c-0.28-0.06-0.4-0.12-0.4-0.31c0-0.21,0.15-0.28,0.49-0.28c0.64,0,2.33,0.09,3.15,0.09c0.95,0,2.63-0.09,3.58-0.09
	c0.31,0,0.52,0.06,0.52,0.28c0,0.21-0.15,0.28-0.46,0.28c-0.43,0-1.19,0.12-1.78,0.34c-0.95,0.37-1.99,1.01-3.31,2.3
	c-0.95,0.92-5.57,5.51-6.61,6.61c1.1,1.44,7.1,7.9,8.3,9.03c1.35,1.29,2.72,2.66,4.38,3.31c0.92,0.37,1.53,0.46,1.9,0.46
	c0.21,0,0.4,0.06,0.4,0.24c0,0.21-0.15,0.31-0.73,0.31h-2.66c-0.92,0-1.47,0-2.11-0.06c-1.65-0.15-2.48-0.83-3.8-1.99
	c-1.35-1.2-7.38-8.27-8.02-9.16l-0.34-0.46h-0.15v2.79c0,2.82,0,5.23,0.09,6.55c0.06,0.86,0.34,1.53,1.1,1.65
	c0.43,0.06,1.1,0.12,1.5,0.12c0.24,0,0.4,0.09,0.4,0.24c0,0.21-0.24,0.31-0.58,0.31c-1.71,0-3.64-0.09-4.41-0.09
	c-0.7,0-2.63,0.09-3.86,0.09c-0.4,0-0.61-0.09-0.61-0.31c0-0.15,0.12-0.24,0.49-0.24c0.46,0,0.83-0.06,1.1-0.12
	c0.61-0.12,0.76-0.79,0.89-1.68c0.15-1.29,0.15-3.7,0.15-6.52V22c0-4.65,0-5.51-0.06-6.49c-0.06-1.04-0.31-1.53-1.32-1.74
	c-0.24-0.06-0.76-0.09-1.19-0.09c-0.34,0-0.52-0.06-0.52-0.28c0-0.21,0.21-0.28,0.67-0.28c1.62,0,3.55,0.09,4.29,0.09
	c0.73,0,2.66-0.09,3.7-0.09c0.43,0,0.64,0.06,0.64,0.28c0,0.21-0.18,0.28-0.43,0.28c-0.31,0-0.49,0.03-0.86,0.09
	c-0.83,0.15-1.07,0.67-1.13,1.74c-0.06,0.98-0.06,1.84-0.06,6.49V23.35z"/>
<path class="st0" d="M152.64,22c0-4.65,0-5.51-0.06-6.49c-0.06-1.04-0.31-1.53-1.32-1.74c-0.25-0.06-0.77-0.09-1.19-0.09
	c-0.34,0-0.52-0.06-0.52-0.28c0-0.21,0.21-0.28,0.67-0.28c1.62,0,3.55,0.09,4.41,0.09c0.98,0,7.07,0,7.65-0.03
	c0.58-0.06,1.07-0.12,1.32-0.18c0.15-0.03,0.34-0.12,0.49-0.12c0.15,0,0.18,0.12,0.18,0.28c0,0.21-0.15,0.58-0.24,1.99
	c-0.03,0.31-0.09,1.65-0.15,2.02c-0.03,0.15-0.09,0.34-0.31,0.34c-0.21,0-0.28-0.15-0.28-0.43c0-0.21-0.03-0.73-0.18-1.1
	c-0.21-0.55-0.52-0.92-2.05-1.1c-0.52-0.06-3.74-0.12-4.35-0.12c-0.15,0-0.21,0.09-0.21,0.31v7.75c0,0.21,0.03,0.34,0.21,0.34
	c0.67,0,4.19,0,4.9-0.06c0.74-0.06,1.19-0.15,1.47-0.46c0.21-0.25,0.34-0.4,0.49-0.4c0.12,0,0.21,0.06,0.21,0.24
	c0,0.18-0.15,0.67-0.25,2.23c-0.06,0.61-0.12,1.84-0.12,2.05c0,0.24,0,0.58-0.28,0.58c-0.21,0-0.28-0.12-0.28-0.28
	c-0.03-0.31-0.03-0.7-0.12-1.1c-0.15-0.61-0.58-1.07-1.71-1.19c-0.58-0.06-3.61-0.09-4.35-0.09c-0.15,0-0.18,0.12-0.18,0.31v2.42
	c0,1.04-0.03,3.86,0,4.74c0.06,2.11,0.55,2.57,3.67,2.57c0.8,0,2.08,0,2.88-0.37c0.8-0.37,1.16-1.01,1.38-2.26
	c0.06-0.34,0.12-0.46,0.34-0.46c0.24,0,0.24,0.24,0.24,0.55c0,0.7-0.24,2.79-0.4,3.4c-0.21,0.8-0.49,0.8-1.65,0.8
	c-4.62,0-6.67-0.19-8.48-0.19c-0.7,0-2.63,0.09-3.86,0.09c-0.4,0-0.61-0.09-0.61-0.31c0-0.15,0.12-0.24,0.49-0.24
	c0.46,0,0.83-0.06,1.1-0.12c0.61-0.12,0.76-0.79,0.89-1.68c0.15-1.29,0.15-3.7,0.15-6.52V22z"/>
<path class="st0" d="M175.34,13.25c0.09-0.52,0.28-0.8,0.52-0.8c0.25,0,0.43,0.15,0.83,0.95l8.36,17.27l8.33-17.48
	c0.21-0.49,0.4-0.73,0.67-0.73c0.28,0,0.46,0.31,0.55,0.95l2.79,18.92c0.28,1.93,0.58,2.82,1.5,3.09c0.89,0.27,1.5,0.31,1.9,0.31
	c0.28,0,0.49,0.03,0.49,0.21c0,0.24-0.37,0.34-0.8,0.34c-0.77,0-4.99-0.09-6.21-0.18c-0.7-0.06-0.89-0.15-0.89-0.34
	c0-0.15,0.12-0.25,0.34-0.34c0.18-0.06,0.28-0.46,0.15-1.32l-1.84-13.47h-0.12l-6.67,13.9c-0.7,1.44-0.86,1.71-1.13,1.71
	c-0.28,0-0.58-0.61-1.07-1.53c-0.73-1.41-3.15-6.09-3.52-6.95c-0.28-0.64-2.11-4.5-3.18-6.8h-0.12l-1.59,12.18
	c-0.06,0.55-0.09,0.95-0.09,1.44c0,0.58,0.4,0.85,0.92,0.98c0.55,0.12,0.98,0.15,1.29,0.15c0.24,0,0.46,0.06,0.46,0.21
	c0,0.28-0.28,0.34-0.74,0.34c-1.29,0-2.66-0.09-3.22-0.09c-0.58,0-2.05,0.09-3.03,0.09c-0.31,0-0.55-0.06-0.55-0.34
	c0-0.15,0.18-0.21,0.49-0.21c0.24,0,0.46,0,0.92-0.09c0.86-0.19,1.1-1.38,1.25-2.42L175.34,13.25z"/>
<path class="st0" d="M207.52,22c0-4.65,0-5.51-0.06-6.49c-0.06-1.04-0.31-1.53-1.32-1.74c-0.24-0.06-0.77-0.09-1.19-0.09
	c-0.34,0-0.52-0.06-0.52-0.28c0-0.21,0.21-0.28,0.67-0.28c1.62,0,3.55,0.09,4.41,0.09c0.98,0,7.07,0,7.65-0.03
	c0.58-0.06,1.07-0.12,1.32-0.18c0.15-0.03,0.34-0.12,0.49-0.12c0.15,0,0.18,0.12,0.18,0.28c0,0.21-0.15,0.58-0.25,1.99
	c-0.03,0.31-0.09,1.65-0.15,2.02c-0.03,0.15-0.09,0.34-0.31,0.34c-0.21,0-0.28-0.15-0.28-0.43c0-0.21-0.03-0.73-0.18-1.1
	c-0.21-0.55-0.52-0.92-2.05-1.1c-0.52-0.06-3.73-0.12-4.35-0.12c-0.15,0-0.21,0.09-0.21,0.31v7.75c0,0.21,0.03,0.34,0.21,0.34
	c0.67,0,4.19,0,4.9-0.06c0.73-0.06,1.19-0.15,1.47-0.46c0.21-0.25,0.34-0.4,0.49-0.4c0.12,0,0.21,0.06,0.21,0.24
	c0,0.18-0.15,0.67-0.24,2.23c-0.06,0.61-0.12,1.84-0.12,2.05c0,0.24,0,0.58-0.28,0.58c-0.21,0-0.28-0.12-0.28-0.28
	c-0.03-0.31-0.03-0.7-0.12-1.1c-0.15-0.61-0.58-1.07-1.71-1.19c-0.58-0.06-3.61-0.09-4.35-0.09c-0.15,0-0.18,0.12-0.18,0.31v2.42
	c0,1.04-0.03,3.86,0,4.74c0.06,2.11,0.55,2.57,3.67,2.57c0.8,0,2.08,0,2.88-0.37c0.8-0.37,1.16-1.01,1.38-2.26
	c0.06-0.34,0.12-0.46,0.34-0.46c0.24,0,0.24,0.24,0.24,0.55c0,0.7-0.24,2.79-0.4,3.4c-0.21,0.8-0.49,0.8-1.65,0.8
	c-4.62,0-6.67-0.19-8.48-0.19c-0.7,0-2.63,0.09-3.86,0.09c-0.4,0-0.61-0.09-0.61-0.31c0-0.15,0.12-0.24,0.49-0.24
	c0.46,0,0.83-0.06,1.1-0.12c0.61-0.12,0.77-0.79,0.89-1.68c0.15-1.29,0.15-3.7,0.15-6.52V22z"/>
<path class="st0" d="M232.67,21.51c0-2.42,0-5.08,0.03-6.12c0-0.34,0.09-0.49,0.37-0.61c0.25-0.12,1.38-0.21,1.99-0.21
	c2.39,0,5.88,0.37,8.69,3.06c1.32,1.25,2.94,3.77,2.94,7.65c0,3.15-0.61,5.94-2.57,7.62c-1.84,1.59-3.92,2.21-7.04,2.21
	c-2.42,0-3.61-0.64-4.01-1.23c-0.24-0.34-0.31-1.56-0.34-2.33c-0.03-0.58-0.06-2.94-0.06-6.18V21.51z M228.84,27.39
	c0,2.82,0,5.23-0.15,6.52c-0.12,0.89-0.28,1.56-0.89,1.68c-0.28,0.06-0.64,0.12-1.1,0.12c-0.37,0-0.49,0.09-0.49,0.24
	c0,0.21,0.21,0.31,0.61,0.31c1.22,0,3.15-0.09,3.86-0.09c1.53,0,4.29,0.37,6.52,0.37c5.66,0,8.85-2.17,10.26-3.61
	c1.71-1.75,3.34-4.68,3.34-8.54c0-3.64-1.44-6.18-2.97-7.78c-3.34-3.49-8.45-3.49-12.27-3.49c-1.84,0-3.77,0.09-4.71,0.09
	c-0.86,0-2.79-0.09-4.41-0.09c-0.46,0-0.67,0.06-0.67,0.28c0,0.21,0.18,0.28,0.52,0.28c0.43,0,0.95,0.03,1.19,0.09
	c1.01,0.21,1.26,0.7,1.32,1.74c0.06,0.98,0.06,1.84,0.06,6.49V27.39z"/>
<path class="st0" d="M258.55,22c0-4.65,0-5.51-0.06-6.49c-0.06-1.04-0.31-1.53-1.31-1.74c-0.25-0.06-0.77-0.09-1.2-0.09
	c-0.33,0-0.52-0.06-0.52-0.28c0-0.21,0.21-0.28,0.67-0.28c1.62,0,3.55,0.09,4.41,0.09c0.98,0,7.07,0,7.65-0.03
	c0.58-0.06,1.07-0.12,1.32-0.18c0.15-0.03,0.33-0.12,0.49-0.12c0.15,0,0.19,0.12,0.19,0.28c0,0.21-0.15,0.58-0.25,1.99
	c-0.03,0.31-0.09,1.65-0.15,2.02c-0.03,0.15-0.09,0.34-0.31,0.34c-0.21,0-0.27-0.15-0.27-0.43c0-0.21-0.03-0.73-0.18-1.1
	c-0.21-0.55-0.52-0.92-2.05-1.1c-0.52-0.06-3.73-0.12-4.35-0.12c-0.15,0-0.21,0.09-0.21,0.31v7.75c0,0.21,0.03,0.34,0.21,0.34
	c0.68,0,4.19,0,4.9-0.06c0.73-0.06,1.19-0.15,1.47-0.46c0.21-0.25,0.33-0.4,0.49-0.4c0.12,0,0.21,0.06,0.21,0.24
	c0,0.18-0.15,0.67-0.24,2.23c-0.06,0.61-0.12,1.84-0.12,2.05c0,0.24,0,0.58-0.27,0.58c-0.21,0-0.27-0.12-0.27-0.28
	c-0.03-0.31-0.03-0.7-0.12-1.1c-0.15-0.61-0.58-1.07-1.71-1.19c-0.58-0.06-3.61-0.09-4.35-0.09c-0.15,0-0.18,0.12-0.18,0.31v2.42
	c0,1.04-0.03,3.86,0,4.74c0.06,2.11,0.55,2.57,3.67,2.57c0.8,0,2.08,0,2.88-0.37c0.8-0.37,1.16-1.01,1.38-2.26
	c0.06-0.34,0.12-0.46,0.34-0.46c0.25,0,0.25,0.24,0.25,0.55c0,0.7-0.25,2.79-0.4,3.4c-0.21,0.8-0.49,0.8-1.65,0.8
	c-4.62,0-6.67-0.19-8.48-0.19c-0.7,0-2.63,0.09-3.86,0.09c-0.4,0-0.61-0.09-0.61-0.31c0-0.15,0.12-0.24,0.49-0.24
	c0.46,0,0.83-0.06,1.1-0.12c0.61-0.12,0.77-0.79,0.89-1.68c0.15-1.29,0.15-3.7,0.15-6.52V22z"/>
<path class="st0" d="M283.41,27.39c0,3.92,0,6.03,0.64,6.58c0.52,0.46,1.32,0.67,3.7,0.67c1.62,0,2.82-0.03,3.58-0.86
	c0.37-0.4,0.73-1.26,0.79-1.84c0.03-0.28,0.09-0.46,0.34-0.46c0.21,0,0.25,0.15,0.25,0.52c0,0.34-0.21,2.63-0.46,3.52
	c-0.18,0.68-0.34,0.83-1.93,0.83c-4.41,0-6.43-0.19-8.91-0.19c-0.7,0-2.63,0.09-3.86,0.09c-0.4,0-0.61-0.09-0.61-0.31
	c0-0.15,0.12-0.24,0.49-0.24c0.46,0,0.83-0.06,1.1-0.12c0.61-0.12,0.77-0.79,0.89-1.68c0.15-1.29,0.15-3.7,0.15-6.52V22
	c0-4.65,0-5.51-0.06-6.49c-0.06-1.04-0.31-1.53-1.32-1.74c-0.25-0.06-0.62-0.09-1.01-0.09c-0.34,0-0.52-0.06-0.52-0.28
	c0-0.21,0.21-0.28,0.67-0.28c1.44,0,3.37,0.09,4.19,0.09c0.73,0,2.97-0.09,4.16-0.09c0.43,0,0.64,0.06,0.64,0.28
	c0,0.21-0.18,0.28-0.55,0.28c-0.34,0-0.83,0.03-1.19,0.09c-0.83,0.15-1.07,0.67-1.13,1.74c-0.06,0.98-0.06,1.84-0.06,6.49V27.39z"/>
<path class="st0" d="M297.09,35.9c-0.49-0.21-0.58-0.37-0.58-1.04c0-1.68,0.12-3.52,0.15-4.01c0.03-0.46,0.12-0.8,0.37-0.8
	c0.27,0,0.31,0.28,0.31,0.52c0,0.4,0.12,1.04,0.27,1.56c0.68,2.26,2.48,3.09,4.38,3.09c2.75,0,4.1-1.87,4.1-3.49
	c0-1.5-0.46-2.94-3-4.9l-1.41-1.1c-3.37-2.63-4.53-4.78-4.53-7.26c0-3.37,2.82-5.79,7.07-5.79c1.99,0,3.28,0.31,4.07,0.52
	c0.27,0.06,0.43,0.15,0.43,0.37c0,0.4-0.12,1.29-0.12,3.67c0,0.67-0.09,0.92-0.34,0.92c-0.21,0-0.31-0.18-0.31-0.55
	c0-0.28-0.15-1.22-0.8-2.02c-0.46-0.58-1.35-1.5-3.34-1.5c-2.27,0-3.64,1.32-3.64,3.15c0,1.41,0.7,2.48,3.25,4.41l0.86,0.64
	c3.67,2.85,5.02,4.9,5.02,7.81c0,1.78-0.67,3.89-2.88,5.33c-1.53,0.98-3.24,1.25-4.87,1.25C299.79,36.7,298.41,36.48,297.09,35.9z"
	/>
<path class="st0" d="M315.22,16.13c-0.71-1.68-1.23-2.02-2.33-2.33c-0.46-0.12-0.95-0.12-1.19-0.12c-0.28,0-0.37-0.09-0.37-0.28
	c0-0.24,0.34-0.28,0.8-0.28c1.62,0,3.37,0.09,4.44,0.09c0.76,0,2.23-0.09,3.77-0.09c0.37,0,0.7,0.06,0.7,0.28
	c0,0.21-0.18,0.28-0.46,0.28c-0.49,0-0.95,0.03-1.19,0.21c-0.21,0.15-0.31,0.37-0.31,0.64c0,0.4,0.28,1.25,0.7,2.36l5.27,13.9h0.12
	c1.32-3.37,5.29-13.22,6.03-15.25c0.15-0.4,0.28-0.86,0.28-1.13c0-0.25-0.12-0.49-0.4-0.58c-0.37-0.12-0.83-0.15-1.23-0.15
	c-0.28,0-0.52-0.03-0.52-0.24c0-0.25,0.28-0.31,0.86-0.31c1.53,0,2.82,0.09,3.21,0.09c0.52,0,1.96-0.09,2.88-0.09
	c0.4,0,0.64,0.06,0.64,0.28c0,0.21-0.18,0.28-0.49,0.28c-0.31,0-0.95,0-1.5,0.37c-0.4,0.28-0.86,0.8-1.68,2.75
	c-1.19,2.88-2.02,4.53-3.67,8.3c-1.96,4.47-3.4,7.81-4.07,9.34c-0.8,1.78-0.98,2.26-1.41,2.26c-0.4,0-0.58-0.43-1.16-1.87
	L315.22,16.13z"/>
<path class="st0" d="M341.73,22c0-4.65,0-5.51-0.06-6.49c-0.06-1.04-0.31-1.53-1.32-1.74c-0.25-0.06-0.77-0.09-1.2-0.09
	c-0.33,0-0.52-0.06-0.52-0.28c0-0.21,0.21-0.28,0.67-0.28c1.62,0,3.55,0.09,4.41,0.09c0.98,0,7.07,0,7.65-0.03
	c0.58-0.06,1.07-0.12,1.32-0.18c0.15-0.03,0.33-0.12,0.49-0.12c0.15,0,0.19,0.12,0.19,0.28c0,0.21-0.15,0.58-0.25,1.99
	c-0.03,0.31-0.09,1.65-0.15,2.02c-0.03,0.15-0.09,0.34-0.31,0.34c-0.21,0-0.27-0.15-0.27-0.43c0-0.21-0.03-0.73-0.18-1.1
	c-0.21-0.55-0.52-0.92-2.05-1.1c-0.52-0.06-3.73-0.12-4.35-0.12c-0.15,0-0.21,0.09-0.21,0.31v7.75c0,0.21,0.03,0.34,0.21,0.34
	c0.68,0,4.19,0,4.9-0.06c0.73-0.06,1.19-0.15,1.47-0.46c0.21-0.25,0.34-0.4,0.49-0.4c0.12,0,0.21,0.06,0.21,0.24
	c0,0.18-0.15,0.67-0.24,2.23c-0.06,0.61-0.12,1.84-0.12,2.05c0,0.24,0,0.58-0.27,0.58c-0.21,0-0.27-0.12-0.27-0.28
	c-0.03-0.31-0.03-0.7-0.12-1.1c-0.15-0.61-0.58-1.07-1.71-1.19c-0.58-0.06-3.61-0.09-4.35-0.09c-0.15,0-0.19,0.12-0.19,0.31v2.42
	c0,1.04-0.03,3.86,0,4.74c0.06,2.11,0.55,2.57,3.67,2.57c0.8,0,2.08,0,2.88-0.37c0.8-0.37,1.16-1.01,1.38-2.26
	c0.06-0.34,0.12-0.46,0.34-0.46c0.25,0,0.25,0.24,0.25,0.55c0,0.7-0.25,2.79-0.4,3.4c-0.21,0.8-0.49,0.8-1.65,0.8
	c-4.62,0-6.67-0.19-8.48-0.19c-0.7,0-2.63,0.09-3.86,0.09c-0.4,0-0.62-0.09-0.62-0.31c0-0.15,0.12-0.24,0.49-0.24
	c0.46,0,0.83-0.06,1.1-0.12c0.61-0.12,0.76-0.79,0.89-1.68c0.15-1.29,0.15-3.7,0.15-6.52V22z"/>
<path class="st0" d="M366.33,15.11c0-0.24,0.06-0.37,0.27-0.43c0.31-0.09,0.86-0.12,1.62-0.12c1.81,0,4.68,1.26,4.68,5.6
	c0,2.51-0.89,3.92-1.81,4.59c-0.55,0.4-0.95,0.52-2.17,0.52c-0.77,0-1.68-0.09-2.33-0.31c-0.21-0.09-0.27-0.21-0.27-0.55V15.11z
	 M362.72,27.39c0,2.82,0,5.23-0.15,6.52c-0.12,0.89-0.28,1.56-0.89,1.68c-0.27,0.06-0.64,0.12-1.1,0.12c-0.37,0-0.49,0.09-0.49,0.24
	c0,0.21,0.21,0.31,0.61,0.31c1.23,0,3.15-0.09,3.74-0.09c0.46,0,2.72,0.09,4.5,0.09c0.4,0,0.61-0.09,0.61-0.31
	c0-0.15-0.12-0.24-0.37-0.24c-0.37,0-1.04-0.06-1.5-0.12c-0.92-0.12-1.1-0.79-1.19-1.68c-0.15-1.29-0.15-3.7-0.15-6.55v-0.43
	c0-0.18,0.09-0.25,0.24-0.25l2.66,0.06c0.21,0,0.4,0.03,0.55,0.21c0.4,0.46,1.81,2.54,3.03,4.22c1.71,2.36,2.88,3.8,4.19,4.5
	c0.79,0.43,1.56,0.58,3.28,0.58h2.91c0.37,0,0.58-0.06,0.58-0.31c0-0.15-0.12-0.24-0.37-0.24c-0.24,0-0.52-0.03-0.85-0.09
	c-0.46-0.09-1.72-0.31-3.43-2.08c-1.8-1.9-3.92-4.62-6.64-8.05c3.09-2.51,4.04-4.59,4.04-6.86c0-2.05-1.23-3.61-2.08-4.19
	c-1.66-1.13-3.71-1.32-5.64-1.32c-0.95,0-3.27,0.09-4.31,0.09c-0.64,0-2.57-0.09-4.19-0.09c-0.46,0-0.67,0.06-0.67,0.28
	c0,0.21,0.18,0.28,0.52,0.28c0.43,0,0.95,0.03,1.19,0.09c1.01,0.21,1.26,0.7,1.32,1.74c0.06,0.98,0.06,1.84,0.06,6.49V27.39z"/>
<path class="st0" d="M392.15,23.35h0.15c1.04-1.13,5.51-5.69,6.4-6.73c0.86-1.01,1.53-1.78,1.53-2.3c0-0.34-0.12-0.55-0.43-0.61
	c-0.27-0.06-0.4-0.12-0.4-0.31c0-0.21,0.15-0.28,0.49-0.28c0.64,0,2.33,0.09,3.15,0.09c0.95,0,2.63-0.09,3.58-0.09
	c0.31,0,0.52,0.06,0.52,0.28c0,0.21-0.15,0.28-0.46,0.28c-0.43,0-1.2,0.12-1.78,0.34c-0.95,0.37-1.99,1.01-3.31,2.3
	c-0.95,0.92-5.57,5.51-6.61,6.61c1.1,1.44,7.1,7.9,8.3,9.03c1.35,1.29,2.72,2.66,4.38,3.31c0.92,0.37,1.53,0.46,1.9,0.46
	c0.21,0,0.4,0.06,0.4,0.24c0,0.21-0.15,0.31-0.73,0.31h-2.66c-0.92,0-1.47,0-2.11-0.06c-1.65-0.15-2.48-0.83-3.79-1.99
	c-1.35-1.2-7.38-8.27-8.02-9.16l-0.34-0.46h-0.15v2.79c0,2.82,0,5.23,0.09,6.55c0.06,0.86,0.34,1.53,1.1,1.65
	c0.43,0.06,1.1,0.12,1.5,0.12c0.24,0,0.4,0.09,0.4,0.24c0,0.21-0.24,0.31-0.58,0.31c-1.72,0-3.64-0.09-4.41-0.09
	c-0.7,0-2.63,0.09-3.86,0.09c-0.4,0-0.61-0.09-0.61-0.31c0-0.15,0.12-0.24,0.49-0.24c0.46,0,0.83-0.06,1.1-0.12
	c0.61-0.12,0.77-0.79,0.89-1.68c0.15-1.29,0.15-3.7,0.15-6.52V22c0-4.65,0-5.51-0.06-6.49c-0.06-1.04-0.31-1.53-1.32-1.74
	c-0.24-0.06-0.76-0.09-1.19-0.09c-0.34,0-0.52-0.06-0.52-0.28c0-0.21,0.21-0.28,0.67-0.28c1.62,0,3.55,0.09,4.29,0.09
	c0.73,0,2.66-0.09,3.7-0.09c0.43,0,0.64,0.06,0.64,0.28c0,0.21-0.18,0.28-0.43,0.28c-0.31,0-0.49,0.03-0.86,0.09
	c-0.83,0.15-1.07,0.67-1.13,1.74c-0.06,0.98-0.06,1.84-0.06,6.49V23.35z"/>
<path class="st0" d="M414.52,22c0-4.65,0-5.51-0.06-6.49c-0.06-1.04-0.31-1.53-1.32-1.74c-0.25-0.06-0.77-0.09-1.2-0.09
	c-0.33,0-0.52-0.06-0.52-0.28c0-0.21,0.21-0.28,0.67-0.28c1.62,0,3.55,0.09,4.41,0.09c0.98,0,7.07,0,7.65-0.03
	c0.58-0.06,1.07-0.12,1.32-0.18c0.15-0.03,0.33-0.12,0.49-0.12c0.15,0,0.19,0.12,0.19,0.28c0,0.21-0.15,0.58-0.25,1.99
	c-0.03,0.31-0.09,1.65-0.15,2.02c-0.03,0.15-0.09,0.34-0.31,0.34c-0.21,0-0.27-0.15-0.27-0.43c0-0.21-0.03-0.73-0.18-1.1
	c-0.21-0.55-0.52-0.92-2.05-1.1c-0.52-0.06-3.73-0.12-4.35-0.12c-0.15,0-0.21,0.09-0.21,0.31v7.75c0,0.21,0.03,0.34,0.21,0.34
	c0.67,0,4.19,0,4.9-0.06c0.73-0.06,1.19-0.15,1.47-0.46c0.21-0.25,0.33-0.4,0.49-0.4c0.12,0,0.21,0.06,0.21,0.24
	c0,0.18-0.15,0.67-0.24,2.23c-0.06,0.61-0.12,1.84-0.12,2.05c0,0.24,0,0.58-0.27,0.58c-0.21,0-0.27-0.12-0.27-0.28
	c-0.03-0.31-0.03-0.7-0.12-1.1c-0.15-0.61-0.58-1.07-1.71-1.19c-0.58-0.06-3.61-0.09-4.35-0.09c-0.15,0-0.18,0.12-0.18,0.31v2.42
	c0,1.04-0.03,3.86,0,4.74c0.06,2.11,0.55,2.57,3.67,2.57c0.8,0,2.08,0,2.88-0.37c0.8-0.37,1.16-1.01,1.38-2.26
	c0.06-0.34,0.12-0.46,0.34-0.46c0.25,0,0.25,0.24,0.25,0.55c0,0.7-0.25,2.79-0.4,3.4c-0.21,0.8-0.49,0.8-1.65,0.8
	c-4.62,0-6.67-0.19-8.48-0.19c-0.7,0-2.63,0.09-3.86,0.09c-0.4,0-0.61-0.09-0.61-0.31c0-0.15,0.12-0.24,0.49-0.24
	c0.46,0,0.83-0.06,1.1-0.12c0.61-0.12,0.77-0.79,0.89-1.68c0.15-1.29,0.15-3.7,0.15-6.52V22z"/>
<path class="st0" d="M439.47,14.84l-4.56,0.12c-1.78,0.06-2.51,0.21-2.97,0.89c-0.31,0.46-0.46,0.83-0.52,1.07
	c-0.06,0.24-0.15,0.37-0.34,0.37c-0.21,0-0.27-0.15-0.27-0.49c0-0.49,0.58-3.28,0.64-3.52c0.09-0.4,0.18-0.58,0.37-0.58
	c0.25,0,0.55,0.31,1.32,0.37c0.89,0.09,2.05,0.15,3.06,0.15h12.12c1.96,0,2.7-0.31,2.94-0.31c0.21,0,0.25,0.18,0.25,0.64
	c0,0.64-0.09,2.76-0.09,3.55c-0.03,0.31-0.09,0.49-0.27,0.49c-0.25,0-0.31-0.15-0.34-0.61l-0.03-0.34c-0.06-0.8-0.89-1.65-3.61-1.71
	l-3.86-0.09v12.55c0,2.82,0,5.23,0.15,6.55c0.09,0.86,0.28,1.53,1.2,1.65c0.43,0.06,1.1,0.12,1.56,0.12c0.34,0,0.49,0.09,0.49,0.24
	c0,0.21-0.24,0.31-0.58,0.31c-2.02,0-3.95-0.09-4.81-0.09c-0.7,0-2.63,0.09-3.86,0.09c-0.4,0-0.61-0.09-0.61-0.31
	c0-0.15,0.12-0.24,0.49-0.24c0.46,0,0.83-0.06,1.1-0.12c0.61-0.12,0.8-0.79,0.89-1.68c0.15-1.29,0.15-3.7,0.15-6.52V14.84z"/>
<g>
	<path class="st1" d="M35.92,12.82c-0.67,2.76-1.91,5.97-3.81,9.75c-5.7,11.32-17.25,34.17-18.9,37.42
		c1.59,1.21,3.31,2.29,5.16,3.22c1.17,0.59,2.36,1.1,3.56,1.54c1.51-2.98,9.65-19.14,16.39-32.51
		C44.95,19.09,37.63,13.82,35.92,12.82z"/>
	<path class="st1" d="M30.37,0.14C19.29,1.16,8.96,7.69,3.58,18.36c-5.6,11.1-4.41,23.84,2.01,33.51
		c2.24-4.45,12.3-24.39,18.76-37.2C29.63,4.18,30.36,1.06,30.37,0.14z"/>
	<path class="st1" d="M33.38,0c2.65,2.83,3.86,6.46,2.74,11.93C47.94,18,49.94,25.41,48.94,31.74
		c11.27,5.72,13.71,12.66,13.14,18.75c0.4-0.67,0.79-1.35,1.14-2.06c8.3-16.47,1.68-36.55-14.79-44.86C43.6,1.13,38.45-0.01,33.38,0
		z"/>
	<path class="st1" d="M48.78,32.64c-0.7,3.47-2.23,6.56-3.39,8.87c-2.5,4.96-10.91,21.64-12.75,25.29
		c4.23,0.09,8.41-0.63,12.33-2.08c2.09-4.15,4.28-8.49,6.34-12.57C58.14,38.62,50.2,33.43,48.78,32.64z"/>
</g>
<g>
	<path class="st0" d="M85.63,50.22c-0.15-1.43-1.11-2.04-2.48-2.04c-1.12,0-2.24,0.41-2.24,1.71c0,1.23,1.6,1.42,3.21,1.78
		c1.6,0.36,3.19,0.92,3.19,2.89c0,2.13-2.09,2.98-3.91,2.98c-2.24,0-4.13-1.09-4.13-3.53h1.26c0,1.68,1.4,2.41,2.91,2.41
		c1.2,0,2.54-0.38,2.54-1.82c0-1.37-1.6-1.61-3.19-1.96c-1.6-0.35-3.21-0.81-3.21-2.65c0-2.03,1.81-2.93,3.63-2.93
		c2.04,0,3.6,0.97,3.68,3.17H85.63z"/>
	<path class="st0" d="M98.79,57.3H97.4l-2.28-8.4h-0.03l-2.31,8.4H91.4l-2.56-10h1.36l1.96,8.32h0.03l2.24-8.32h1.44l2.21,8.32h0.03
		l2.03-8.32h1.33L98.79,57.3z"/>
	<path class="st0" d="M103.63,47.3h6.91v1.12h-5.58v3.18h5.2v1.12h-5.2v3.46h5.62v1.12h-6.95V47.3z"/>
	<path class="st0" d="M113.23,47.3h3.43c3.08,0,4.8,1.54,4.8,4.76c0,3.35-1.47,5.24-4.8,5.24h-3.43V47.3z M114.56,56.18h2.21
		c0.91,0,3.36-0.25,3.36-3.94c0-2.38-0.88-3.82-3.33-3.82h-2.24V56.18z"/>
	<path class="st0" d="M124.2,47.3h1.33v10h-1.33V47.3z"/>
	<path class="st0" d="M134.6,50.22c-0.15-1.43-1.11-2.04-2.48-2.04c-1.12,0-2.24,0.41-2.24,1.71c0,1.23,1.6,1.42,3.21,1.78
		c1.6,0.36,3.19,0.92,3.19,2.89c0,2.13-2.09,2.98-3.91,2.98c-2.24,0-4.13-1.09-4.13-3.53h1.26c0,1.68,1.4,2.41,2.91,2.41
		c1.2,0,2.54-0.38,2.54-1.82c0-1.37-1.6-1.61-3.19-1.96c-1.6-0.35-3.21-0.81-3.21-2.65c0-2.03,1.81-2.93,3.63-2.93
		c2.04,0,3.6,0.97,3.68,3.17H134.6z"/>
	<path class="st0" d="M138.94,47.3h1.33v4.3h5.27v-4.3h1.33v10h-1.33v-4.58h-5.27v4.58h-1.33V47.3z"/>
	<path class="st0" d="M155.07,47.3h1.82l3.15,8.4l3.17-8.4h1.82v10h-1.26v-8.32h-0.03l-3.12,8.32h-1.13l-3.12-8.32h-0.03v8.32h-1.26
		V47.3z"/>
	<path class="st0" d="M168.28,47.3h6.91v1.12h-5.58v3.18h5.2v1.12h-5.2v3.46h5.62v1.12h-6.95V47.3z"/>
	<path class="st0" d="M177.89,47.3h3.43c3.08,0,4.8,1.54,4.8,4.76c0,3.35-1.47,5.24-4.8,5.24h-3.43V47.3z M179.22,56.18h2.21
		c0.91,0,3.36-0.25,3.36-3.94c0-2.38-0.88-3.82-3.33-3.82h-2.24V56.18z"/>
	<path class="st0" d="M188.85,47.3h1.33v10h-1.33V47.3z"/>
	<path class="st0" d="M200.5,50.31c-0.28-1.41-1.41-2.13-2.8-2.13c-2.38,0-3.39,1.96-3.39,4.05c0,2.28,1.01,4.19,3.4,4.19
		c1.75,0,2.76-1.23,2.89-2.88h1.33c-0.25,2.49-1.81,4.01-4.33,4.01c-3.11,0-4.62-2.3-4.62-5.21c0-2.9,1.65-5.27,4.73-5.27
		c2.09,0,3.81,1.12,4.12,3.25H200.5z"/>
	<path class="st0" d="M207.2,47.3h1.47l3.91,10h-1.47l-1.09-3.01h-4.23l-1.12,3.01h-1.37L207.2,47.3z M206.21,53.17h3.39l-1.67-4.67
		h-0.03L206.21,53.17z"/>
	<path class="st0" d="M214.54,47.3h1.33v8.88h5.29v1.12h-6.63V47.3z"/>
	<path class="st0" d="M227.68,47.3h4.38c1.99,0,3.07,1.11,3.07,2.96c0,1.85-1.08,2.97-3.07,2.96h-3.05v4.09h-1.33V47.3z
		 M229.01,52.09h2.61c1.5,0.01,2.19-0.64,2.19-1.83s-0.69-1.83-2.19-1.83h-2.61V52.09z"/>
	<path class="st0" d="M237.53,47.3h4.71c1.88,0,3.04,1.02,3.04,2.62c0,1.2-0.53,2.2-1.74,2.54v0.03c1.16,0.22,1.4,1.08,1.5,2.06
		c0.08,0.98,0.03,2.07,0.59,2.76h-1.48c-0.38-0.41-0.17-1.48-0.36-2.46c-0.14-0.98-0.38-1.81-1.67-1.81h-3.25v4.27h-1.33V47.3z
		 M241.63,51.91c1.25,0,2.31-0.32,2.31-1.78c0-0.98-0.53-1.71-1.78-1.71h-3.31v3.49H241.63z"/>
	<path class="st0" d="M252.4,47.06c3.18,0,4.79,2.52,4.79,5.24c0,2.72-1.61,5.24-4.79,5.24s-4.79-2.52-4.79-5.24
		C247.6,49.58,249.22,47.06,252.4,47.06z M252.4,56.42c2.44,0,3.46-2.1,3.46-4.12c0-2.02-1.02-4.12-3.46-4.12
		c-2.44,0-3.46,2.1-3.46,4.12C248.94,54.31,249.96,56.42,252.4,56.42z"/>
	<path class="st0" d="M259.71,47.3h3.43c3.08,0,4.8,1.54,4.8,4.76c0,3.35-1.47,5.24-4.8,5.24h-3.43V47.3z M261.04,56.18h2.21
		c0.91,0,3.36-0.25,3.36-3.94c0-2.38-0.88-3.82-3.33-3.82h-2.24V56.18z"/>
	<path class="st0" d="M278.46,53.68c0,2.52-1.44,3.85-3.94,3.85c-2.58,0-4.1-1.19-4.1-3.85V47.3h1.33v6.39
		c0,1.77,1.01,2.73,2.77,2.73c1.68,0,2.61-0.97,2.61-2.73V47.3h1.33V53.68z"/>
	<path class="st0" d="M288.53,50.31c-0.28-1.41-1.41-2.13-2.8-2.13c-2.38,0-3.39,1.96-3.39,4.05c0,2.28,1.01,4.19,3.4,4.19
		c1.75,0,2.76-1.23,2.89-2.88h1.33c-0.25,2.49-1.81,4.01-4.33,4.01c-3.11,0-4.62-2.3-4.62-5.21c0-2.9,1.65-5.27,4.73-5.27
		c2.09,0,3.81,1.12,4.12,3.25H288.53z"/>
	<path class="st0" d="M294.57,48.42h-3.33V47.3h8v1.12h-3.33v8.88h-1.33V48.42z"/>
	<path class="st0" d="M307.04,50.22c-0.15-1.43-1.11-2.04-2.48-2.04c-1.12,0-2.24,0.41-2.24,1.71c0,1.23,1.6,1.42,3.21,1.78
		c1.6,0.36,3.19,0.92,3.19,2.89c0,2.13-2.09,2.98-3.91,2.98c-2.24,0-4.13-1.09-4.13-3.53h1.26c0,1.68,1.4,2.41,2.91,2.41
		c1.21,0,2.54-0.38,2.54-1.82c0-1.37-1.6-1.61-3.19-1.96c-1.6-0.35-3.21-0.81-3.21-2.65c0-2.03,1.81-2.93,3.63-2.93
		c2.05,0,3.6,0.97,3.68,3.17H307.04z"/>
	<path class="st0" d="M318.68,47.3h1.47l3.91,10h-1.47l-1.09-3.01h-4.23l-1.12,3.01h-1.37L318.68,47.3z M317.69,53.17h3.39
		l-1.67-4.67h-0.03L317.69,53.17z"/>
	<path class="st0" d="M333.43,56.05c-0.77,1.05-2.03,1.49-3.21,1.49c-2.98,0-4.76-2.44-4.76-5.04c0-2.91,1.6-5.43,4.76-5.43
		c2.18,0,3.92,0.98,4.3,3.32h-1.33c-0.27-1.51-1.49-2.2-2.97-2.2c-2.42,0-3.43,2.1-3.43,4.24c0,2.09,1.21,3.99,3.43,3.99
		c2.06,0,3.29-1.44,3.21-3.26h-3.19v-1.12h4.38v5.27h-0.84L333.43,56.05z"/>
	<path class="st0" d="M337.69,47.3h6.91v1.12h-5.58v3.18h5.2v1.12h-5.2v3.46h5.62v1.12h-6.95V47.3z"/>
	<path class="st0" d="M347.49,47.3h1.42l5.27,8.11h0.03V47.3h1.26v10h-1.46l-5.22-8.03h-0.03v8.03h-1.26V47.3z"/>
	<path class="st0" d="M365.56,50.31c-0.28-1.41-1.41-2.13-2.8-2.13c-2.38,0-3.39,1.96-3.39,4.05c0,2.28,1.01,4.19,3.4,4.19
		c1.75,0,2.76-1.23,2.89-2.88h1.33c-0.25,2.49-1.81,4.01-4.33,4.01c-3.11,0-4.62-2.3-4.62-5.21c0-2.9,1.65-5.27,4.73-5.27
		c2.09,0,3.81,1.12,4.12,3.25H365.56z"/>
	<path class="st0" d="M373.53,53.21v4.09h-1.33v-4.09l-3.87-5.91h1.58l3,4.76l2.93-4.76h1.51L373.53,53.21z"/>
</g>
</svg>
