<svg xmlns="http://www.w3.org/2000/svg" id="a" width="498.98" height="141.72" viewBox="0 0 498.98 141.72">
   <defs id="defs1">
      <style id="style1">
         .b,
         .c {
            fill: #000;
            stroke-width: 0
         }

         .c {
            fill: #ffd42e
         }
      </style>
   </defs>
   <path id="path1"
      d="m1.05 58.92.03.37c.02.2 1.68 19.83 2.26 31 .07 1.27.12 2.6.17 3.97.41 10.8.92 24.25 9.71 34.12 8.25 9.26 16.51 13.25 27.59 13.34h.36c11.08-.08 19.34-4.08 27.59-13.34 8.79-9.87 9.3-23.31 9.71-34.12.05-1.37.1-2.69.17-3.97.58-11.17 2.24-30.8 2.26-31l.03-.37z"
      style="stroke-width:0;fill:#00406a" />
   <path id="path2"
      d="M10.05 36.25h.9c1.19-4.14 7.28-14.75 20.57-17.98 0 0-7.54 5.34-10.26 12.65.63-.18 1.33-.25 2.09-.21 2.04.11 3.26.99 3.96 1.77 3.35-11.66 11.27-14.23 11.27-14.23s-1.34 6.89-1.29 13.09c.91-.7 2.15-1.21 3.81-1.21 1.36 0 2.54.4 3.48 1.14.04-6.18-1.29-13.01-1.29-13.01s7.93 2.57 11.28 14.23c.81-.87 2.13-1.61 4.3-1.76q.93-.06 1.74.15c-2.74-7.28-10.24-12.6-10.24-12.6 13.04 3.17 19.24 13.66 20.61 17.97h.9c-.23-3.24 3.1-5 3.99-5.23-1.81-3.91-9.21-15.87-32.17-16.88 0 0 .89-1.29.92-2.92.03-1.35-.79-3.13-2.95-3.47V4.66h2.66V3.09h-2.66V0H40.1v3.09h-2.59v1.57h2.59v3.1c-2.19.35-2.99 2.11-2.97 3.47.03 1.63.92 2.92.92 2.92-23.02 1.02-30.22 13-32.02 16.88 1.11.38 1.98 1.02 2.77 1.85.9.94 1.33 2.04 1.24 3.38z"
      class="c" />
   <path id="path3" d="M5.27 58.92h71.28s.11-1.63.41-4.27H4.86c.3 2.64.41 4.22.41 4.27" class="c" />
   <path id="path4"
      d="M75.4 32.76c-3.04 2-1.89 4.96-1.89 4.96s-2.36-.27-3.58.85c-.69.66-1.06 1.56-1.08 2.71-.03 1.38.35 2.45 1.13 3.19.82.78 1.88.97 2.47 1.01-.27.89-1.28 2.99-4.79 2.99h-.02c-3.4 0-4.59-2.25-4.95-3.19 1.12-.09 3.84-.62 4.02-3.77.06-1.13-.25-2.05-.93-2.73-1.04-1.05-2.66-1.27-3.45-1.31.17-.69.39-2.06-.08-3.24-.04-.09-.78-1.96-3.27-1.91-3.06.07-3.87 1.88-4.05 2.77-.14 1.04.05 2.09.19 2.66-.76.07-2.31.33-3.3 1.37-.64.67-.94 1.54-.88 2.59.06 1.06.44 1.9 1.15 2.5 1.09.93 2.63 1.03 3.38 1.02-.08.46-.33 1.28-1.04 1.98-.92.9-2.34 1.33-4.22 1.29-4.22-.1-5.19-2.42-5.41-3.39.67.05 1.93 0 2.88-.77.77-.63 1.15-1.6 1.16-2.89 0-1.03-.33-1.87-1-2.51-1.01-.97-2.52-1.19-3.33-1.24.35-.86.9-2.65.1-3.99-.03-.04-.93-1.99-3.49-1.99s-3.7 1.55-4.14 2.57c-.39 1.24.05 2.67.34 3.41-.8.05-2.31.27-3.33 1.24-.66.64-1 1.48-1 2.51 0 1.28.39 2.26 1.16 2.89.94.78 2.21.82 2.88.77-.22.97-1.19 3.39-5.41 3.39s-5.18-2.8-5.26-3.26c.74.02 2.29-.09 3.38-1.02.71-.6 1.1-1.45 1.15-2.5.06-1.05-.24-1.92-.88-2.59-.98-1.03-2.51-1.3-3.27-1.37.16-.5.36-1.36.34-2.26-.03-.32-.22-1.16-.88-1.92-.69-.78-1.67-1.21-2.91-1.28-1.2-.07-2.15.21-2.83.82-.75.67-1.02 1.61-1.12 2.14-.1.87.05 1.72.17 2.21-.79.04-2.4.25-3.45 1.31-.68.69-1 1.61-.93 2.73.18 3.14 2.89 3.68 4.01 3.77-.36.94-1.58 3.19-4.94 3.2h-.02c-3.51 0-4.52-2.1-4.79-2.99.59-.04 1.65-.23 2.47-1.01.77-.74 1.15-1.81 1.12-3.19 0-.43-.08-.82-.19-1.19-.87-2.93-4.45-2.36-4.45-2.36s.65-2.1-.54-3.64C4.89 30.33 0 31.99 0 31.99l.15.42c2.45 6.93 3.79 14.83 4.48 20.22h72.59c.69-5.39 2.03-13.29 4.48-20.22l.15-.42s-3.44-1.17-6.42.79z"
      class="c" />
   <path id="path5"
      d="M24.3 74.06c-3.7 0-2.1 4.41-2.1 4.41-1.35-.36-2.91.72-2.88 2.25.08 3.08 3.09 2.81 3.09 2.81s-.74 2.73-3.95 2.65c-2.67-.07-3.51-2.43-3.51-2.43s2.54.11 2.49-3.03-3.21-2.48-3.21-2.48c.89-4.17-3.95-3.79-3.95-3.79s1.6 5.7 2.34 9.23c.65 3.14 1.17 10.15 1.17 10.15h20.52s1.03-7 1.69-10.15c.73-3.53 2.34-9.23 2.34-9.23s-5.05-.4-3.95 3.79c0 0-3.16-.66-3.21 2.48s2.49 3.03 2.49 3.03-.84 2.36-3.51 2.43c-3.21.08-3.95-2.65-3.95-2.65s3.01.26 3.09-2.81c.04-1.52-1.52-2.61-2.88-2.25 0 0 1.6-4.41-2.1-4.41z"
      class="c" />
   <path id="path6"
      d="M57.52 74.06c-3.7 0-2.1 4.41-2.1 4.41-1.35-.36-2.91.73-2.88 2.25.08 3.08 3.09 2.81 3.09 2.81s-.74 2.73-3.95 2.65c-2.67-.07-3.51-2.43-3.51-2.43s2.54.11 2.49-3.03-3.21-2.48-3.21-2.48c.89-4.17-3.95-3.79-3.95-3.79s1.6 5.7 2.34 9.23c.65 3.14 1.17 10.15 1.17 10.15h20.52s1.04-7 1.69-10.15c.73-3.53 2.33-9.23 2.33-9.23s-5.05-.4-3.95 3.79c0 0-3.16-.66-3.21 2.48s2.49 3.03 2.49 3.03-.84 2.36-3.51 2.43c-3.21.08-3.95-2.65-3.95-2.65s3.01.26 3.09-2.81c.04-1.52-1.52-2.61-2.87-2.25 0 0 1.6-4.41-2.1-4.41z"
      class="c" />
   <path id="path7"
      d="M40.91 101.46c-3.96 0-2.25 4.72-2.25 4.72-1.45-.39-3.12.78-3.08 2.41.08 3.3 3.31 3.01 3.31 3.01s-.79 2.93-4.23 2.84c-2.86-.07-3.76-2.6-3.76-2.6s2.72.12 2.66-3.25-3.44-2.66-3.44-2.66c.96-4.47-4.23-4.07-4.23-4.07s1.71 6.11 2.5 9.89c.7 3.37 1.04 10.27 1.04 10.27h22.2s1.11-6.9 1.81-10.27c.79-3.79 2.5-9.89 2.5-9.89s-5.41-.43-4.23 4.07c0 0-3.39-.71-3.44 2.66-.06 3.37 2.66 3.25 2.66 3.25s-.9 2.53-3.76 2.6c-3.44.09-4.23-2.84-4.23-2.84s3.22.28 3.31-3.01c.04-1.63-1.63-2.8-3.08-2.41 0 0 1.72-4.72-2.25-4.72z"
      class="c" />
   <path id="path8"
      d="M121.28 80.7h-3.6v13.64h-6.94V58.92h13.84c6.89 0 11.29 4.75 11.29 10.89 0 4.95-2.9 8.69-7.54 10.04l7.59 14.49h-7.69l-6.94-13.64Zm2-5.95c3.5 0 5.54-2 5.54-4.9s-2.05-4.95-5.54-4.95h-5.6v9.84h5.6z"
      class="b" />
   <path id="path9"
      d="M162.04 87.29c-1.25 4.25-5.15 7.79-11.19 7.79-6.74 0-12.69-4.85-12.69-13.14 0-7.84 5.79-12.94 12.09-12.94 7.59 0 12.14 4.85 12.14 12.74 0 .95-.1 1.95-.1 2.05h-17.58c.15 3.25 2.9 5.59 6.19 5.59 3.1 0 4.8-1.55 5.6-3.75l5.54 1.65zm-6.19-8.04c-.1-2.45-1.7-4.85-5.5-4.85-3.45 0-5.35 2.6-5.49 4.85z"
      class="b" />
   <path id="path10"
      d="M171.27 94.08c.45 2.7 2.6 4.64 5.75 4.64 4.2 0 6.54-2.1 6.54-6.84v-1.8c-1 1.6-3.3 3.15-6.84 3.15-6.54 0-11.44-5.05-11.44-11.94 0-6.49 4.7-11.99 11.44-11.99 3.9 0 6.14 1.7 6.99 3.35v-2.9h6.39v21.93c0 6.74-3.65 12.89-12.89 12.89-6.74 0-11.24-4.2-11.94-8.89l5.99-1.6zm12.39-12.78c0-3.79-2.6-6.19-5.79-6.19s-5.9 2.4-5.9 6.19 2.45 6.25 5.9 6.25 5.79-2.45 5.79-6.25"
      class="b" />
   <path id="path11"
      d="M217.56 87.29c-1.25 4.25-5.14 7.79-11.19 7.79-6.74 0-12.69-4.85-12.69-13.14 0-7.84 5.79-12.94 12.09-12.94 7.59 0 12.14 4.85 12.14 12.74 0 .95-.1 1.95-.1 2.05h-17.58c.15 3.25 2.9 5.59 6.19 5.59 3.1 0 4.8-1.55 5.6-3.75l5.54 1.65zm-6.2-8.04c-.1-2.45-1.7-4.85-5.5-4.85-3.45 0-5.34 2.6-5.49 4.85z"
      class="b" />
   <path id="path12"
      d="M237.1 76.35c-.75-.15-1.4-.2-2-.2-3.4 0-6.34 1.65-6.34 6.94v11.24h-6.64V69.75h6.44v3.65c1.5-3.25 4.89-3.85 6.99-3.85.55 0 1.05.05 1.55.1v6.69z"
      class="b" />
   <path id="path13"
      d="M244.62 57.57c2.3 0 4.1 1.85 4.1 4.15s-1.8 4.04-4.1 4.04-4.1-1.85-4.1-4.04 1.85-4.15 4.1-4.15m-3.29 36.76V69.75h6.64v24.58z"
      class="b" />
   <path id="path14"
      d="M260.25 94.33h-6.64V69.75h6.45v3.05c1.5-2.55 4.45-3.7 7.09-3.7 6.09 0 8.89 4.35 8.89 9.74v15.49h-6.64V79.99c0-2.75-1.35-4.89-4.54-4.89-2.9 0-4.6 2.25-4.6 5.09v14.14z"
      class="b" />
   <path id="path15"
      d="M285.99 94.08c.45 2.7 2.6 4.64 5.74 4.64 4.2 0 6.54-2.1 6.54-6.84v-1.8c-1 1.6-3.3 3.15-6.84 3.15-6.54 0-11.44-5.05-11.44-11.94 0-6.49 4.7-11.99 11.44-11.99 3.9 0 6.14 1.7 6.99 3.35v-2.9h6.39v21.93c0 6.74-3.64 12.89-12.89 12.89-6.74 0-11.24-4.2-11.94-8.89l6-1.6zm12.39-12.78c0-3.79-2.6-6.19-5.8-6.19s-5.89 2.4-5.89 6.19 2.45 6.25 5.89 6.25 5.8-2.45 5.8-6.25"
      class="b" />
   <path id="path16"
      d="M314.13 86.24c.15 1.95 1.6 3.75 4.5 3.75 2.2 0 3.25-1.15 3.25-2.45 0-1.1-.75-2-2.65-2.4l-3.25-.75c-4.75-1.05-6.89-3.9-6.89-7.34 0-4.39 3.9-8.04 9.19-8.04 6.99 0 9.34 4.45 9.64 7.09l-5.54 1.25c-.2-1.45-1.25-3.3-4.05-3.3-1.75 0-3.15 1.05-3.15 2.45 0 1.2.9 1.95 2.25 2.2l3.5.75c4.85 1 7.29 3.95 7.29 7.54 0 4-3.09 8.09-9.54 8.09-7.39 0-9.94-4.79-10.24-7.59z"
      class="b" />
   <path id="path17" d="m346.23 80.1 10.04 14.24h-8.14l-6.49-9.39-2.75 2.9v6.49h-6.64V58.17h6.64V78.9l8.49-9.14h8.69z"
      class="b" />
   <path id="path18"
      d="m364.94 80.2 6.04-.9c1.4-.2 1.85-.9 1.85-1.75 0-1.75-1.35-3.2-4.15-3.2s-4.49 1.85-4.7 4l-5.89-1.25c.4-3.85 3.95-8.09 10.54-8.09 7.79 0 10.69 4.39 10.69 9.34v12.09c0 1.3.15 3.05.3 3.9h-6.09c-.15-.65-.25-2-.25-2.94-1.25 1.94-3.6 3.64-7.24 3.64-5.24 0-8.44-3.55-8.44-7.39 0-4.4 3.25-6.85 7.34-7.45m7.9 4.19v-1.1l-5.54.85c-1.7.25-3.05 1.2-3.05 3.1 0 1.45 1.05 2.85 3.2 2.85 2.8 0 5.4-1.35 5.4-5.7z"
      class="b" />
   <path id="path19"
      d="M390.78 94.33h-6.64V69.75h6.45v3.05c1.5-2.55 4.45-3.7 7.09-3.7 6.09 0 8.89 4.35 8.89 9.74v15.49h-6.64V79.99c0-2.75-1.35-4.89-4.54-4.89-2.9 0-4.6 2.25-4.6 5.09v14.14z"
      class="b" />
   <path id="path20"
      d="M415.73 86.24c.15 1.95 1.6 3.75 4.49 3.75 2.2 0 3.25-1.15 3.25-2.45 0-1.1-.75-2-2.65-2.4l-3.25-.75c-4.74-1.05-6.89-3.9-6.89-7.34 0-4.39 3.9-8.04 9.19-8.04 6.99 0 9.34 4.45 9.64 7.09l-5.55 1.25c-.2-1.45-1.25-3.3-4.04-3.3-1.75 0-3.15 1.05-3.15 2.45 0 1.2.9 1.95 2.25 2.2l3.5.75c4.85 1 7.29 3.95 7.29 7.54 0 4-3.1 8.09-9.54 8.09-7.4 0-9.94-4.79-10.24-7.59z"
      class="b" />
   <path id="path21" d="M433.99 94.33V58.16h6.65v36.17z" class="b" />
   <path id="path22"
      d="M449.28 57.57c2.3 0 4.1 1.85 4.1 4.15s-1.8 4.04-4.1 4.04-4.1-1.85-4.1-4.04 1.85-4.15 4.1-4.15m-3.3 36.76V69.75h6.64v24.58z"
      class="b" />
   <path id="path23"
      d="M480.72 87.29c-1.25 4.25-5.14 7.79-11.19 7.79-6.74 0-12.69-4.85-12.69-13.14 0-7.84 5.79-12.94 12.09-12.94 7.59 0 12.14 4.85 12.14 12.74 0 .95-.1 1.95-.1 2.05h-17.58c.15 3.25 2.9 5.59 6.19 5.59 3.1 0 4.8-1.55 5.6-3.75l5.54 1.65zm-6.2-8.04c-.1-2.45-1.7-4.85-5.5-4.85-3.45 0-5.35 2.6-5.49 4.85z"
      class="b" />
   <path id="path24"
      d="M494.04 69.76h4.94v5.89h-4.94v10.29c0 2.15 1 2.85 2.89 2.85.8 0 1.7-.1 2.05-.2v5.5c-.6.25-1.8.6-3.75.6-4.79 0-7.79-2.85-7.79-7.59V75.66h-4.45v-5.89h1.25c2.6 0 3.8-1.7 3.8-3.9v-3.45h6z"
      class="b" />
</svg>