<svg xmlns="http://www.w3.org/2000/svg" height="800" width="1200" viewBox="-73.5075 -18.201025 637.065 109.20615"><defs><clipPath id="a" clipPathUnits="userSpaceOnUse"><path d="M1472.11 826.5H1692v-38.123h-219.89z"/></clipPath></defs><path d="M151.6433 66.6391H108.779V29.0535H98.7663v43.7506h52.877m13.1285-.0031V29.0506h56.386v6.168h-46.3733v11.752h27.6183v6.0803h-27.6183v13.5853h47.0085v6.165m62.7385-.0002l-23.111-18.2498-23.0203 18.2499h-11.374l28.6468-22.6633-26.8923-21.0873h12.3723l20.7515 16.4167 20.5095-16.4167h11.374l-26.257 20.6668 29.3728 23.0838m10.8899.0029h9.9825V29.0536h-9.9825zm85.8798-37.5855h-45.254V66.639h45.254zm.7562 37.5856h-46.7665c-4.8702 0-9.3775-2.913-9.3775-6.0863v-31.584c0-3.1612 4.5073-6.0833 9.3775-6.0833h46.7665c4.8703 0 9.3775 2.9221 9.3775 6.0833v31.584c0 3.1732-4.5072 6.0863-9.3775 6.0863m87.5133-.0031l-47.7647-33.0844v33.0845h-9.8918V29.0505h8.1372l47.7648 33.0027V29.0505h9.8615V72.801M47.7043 9.382L0 72.804h12.1605l35.5438-54.683L83.248 72.804h12.1605" fill="#002898"/><path d="M323.8565 5.9606c-.0605-.1421-.242-.1936-.363-.127l-.0303.006c-.5747.2723-5.808 2.668-10.6782 2.668-4.9005 0-10.1035-2.3987-10.6783-2.668-.0302-.006-.0302-.003-.0302-.009l-.0303-.0121c-.0302-.0152-.0907.015-.121.0272-.0907.0212-.1512.0393-.2117.1059v.1058c0 .0152-.0303.0242-.0303.0363 0 .0908.0605.1755.121.23.0605.0332 5.1123 3.4726 7.6533 7.9194 2.5107 4.3409 3.025 10.3455 3.0552 10.5966 0 .1482.121.251.2723.251.1512 0 .2722-.115.2722-.2631.0605-.6383.605-6.3737 3.025-10.5845 2.541-4.4014 7.623-7.8862 7.6533-7.9164.0907-.0484.121-.1331.121-.2178.0302-.006.0302-.0121.0302-.0242 0-.0394 0-.0817-.0302-.124" fill="#d4004b"/><g clip-path="url(#a)" transform="matrix(3.025 0 0 -3.025 -4453.133 2500.1612)" fill="#002898"><path d="M1570.61 824.741c-49.17 7.786-89.02-12.792-89.42-13.019-.03-.034-3.52-4.94-3.52-4.94-.02-.036-.13-.252-.09-.28.03-.031.24-.119.28-.095.43.276 43.62 25.926 92.72 18.151.05-.007.1.026.1.077 0 .006.01.009.01.015 0 .044-.04.084-.08.091"/></g></svg>